<?xml version="1.0" encoding="utf-8"?>
<!-- Generator: Adobe Illustrator 26.3.1, SVG Export Plug-In . SVG Version: 6.00 Build 0)  -->
<svg version="1.1" id="Camada_1" xmlns="http://www.w3.org/2000/svg" xmlns:xlink="http://www.w3.org/1999/xlink" x="0px" y="0px"
	 viewBox="0 0 1000 1000" style="enable-background:new 0 0 1000 1000;" xml:space="preserve">
<style type="text/css">
	.st0{fill:#38401D;}
	.st1{opacity:0.99;}
	.st2{fill:#E2DF21;}
	.st3{fill:#FFFFFF;}
	.st4{opacity:0.99;fill:#282012;}
	.st5{fill:#282012;}
	.st6{opacity:0.99;fill:#E2DF21;}
	.st7{fill:#F2CB13;}
	.st8{display:none;}
	.st9{display:inline;fill:#38401D;}
	.st10{display:inline;}
</style>
<g id="FRITZ_1">
	<path id="CONTORNO" class="st0" d="M948.8,579.58l-0.85-0.01c-2,0-4.56,0.14-7.53,0.43c8.17-7.89,17.74-17.01,35.2-31.64
		c27.06-22.68,25-56.95,23.76-77.42c-0.13-2.19-0.26-4.27-0.33-6.19c-0.8-21.01-13.3-44.06-30.4-56.04c-2.28-1.6-4.61-2.99-7-4.18
		c5.36-4.69,10.18-10.41,14.36-17.74c10.41-18.23,15.39-42.97,19.7-97.92c1.74-17.39-6.75-34.16-21.23-41.84
		c-5.25-2.79-11.09-4.2-17.37-4.2c-8.25,0-15.28,2.49-19.05,3.83c-0.31,0.11-0.59,0.21-0.69,0.25
		c-43.47,13.41-96.6,20.79-149.6,20.79c-3.4,0-6.78-0.03-10.16-0.09c-69.13-1.22-122.15-4.67-164.76-7.44
		c-35.06-2.28-62.75-4.08-88.56-4.08c-27.93,0-50.87,2.2-73.21,7.05c35.85-30.06,43.41-83.11,48.85-152.48
		c1.75-17.53-6.8-34.33-21.41-41.94c-6.41-3.34-13.14-5.03-20.12-5.03c-13.32,0.04-22.45,7.18-25.45,9.52
		c-65.83,51.47-152.63,60.15-349.66,68.88c-34.32,1.52-59.68,28.36-79.79,84.47C-2,241.89-1.01,255.03,6.43,265.6
		c12.32,17.51,35.46,17.58,49.4,17.58c0.06,0,0.12,0,0.18,0c8.5,0,18.41-0.39,30.48-0.89c0.96-0.04,1.9-0.06,2.82-0.06
		c-6.85,29.86-21.43,97.4-28.96,133.47c-2,9.59-5.87,26.22-10.36,45.46c-27.41,117.62-41.55,186.3-37.82,212.4
		c9.3,65.1,59.29,78.04,91.47,80.61c-0.02,0.51-0.08,1-0.08,1.51v29.43c0,8.09,3.05,15.48,8.05,21.09v83.32
		c0,19.88,16.17,36.05,36.05,36.05h47.97c11.67,0,22.94-2.43,33.5-7.22c7.73-3.51,14.98-8.24,21.6-14.05
		c8.53,10.92,21.8,17.96,36.7,17.96h45.88c6.52,8.51,16.75,14.03,28.27,14.03h60.77c7.19,0,13.89-2.13,19.54-5.76
		c2,0.32,4.04,0.49,6.13,0.49h19.88c14.73,0,27.29-9.37,32.12-22.44c8.96,9.78,21.74,15.67,35.77,15.67h13.72
		c18.52,0,34.6-11.9,40.01-29.61l0.68-2.21c6.89,17.45,23.91,29.84,43.78,29.84h51.85c5.53,5.53,13.16,8.95,21.58,8.95h31.82
		c5.52,0,10.7-1.47,15.17-4.04c4.54,2.61,9.76,4.04,15.23,4.04h35.62c10.66,0,20.37-5.41,25.98-14.48c0.3-0.48,0.58-0.98,0.85-1.47
		c1.97,0.34,3.98,0.56,6.04,0.56h15.83c19.42,0,35.22-15.8,35.22-35.22v-49.77c0.87-2.62,2.51-6.87,3.25-8.51l0.08-0.16l13.72-28.96
		l7.96-14.53l0.53-1.26c3.51-8.3,3.88-17.07,1.26-25.08c16.87-0.46,29.76-3.18,39.28-8.29c30.63-16.47,36.83-54.33,40.94-79.38
		l0.51-3.08c3.71-22.33,5.5-47.54-9.27-65.25C981.19,588.87,969.44,579.92,948.8,579.58z"/>
	<g id="ASTERISCOS">
		<g>
			<path class="st0" d="M101.07,864.06c-1.18,0-2.39-0.1-3.62-0.31h-2.58l-1.22-0.62c-2.66-0.6-5.06-1.65-7.18-3.16
				c-0.82-0.05-1.63-0.15-2.42-0.3l-0.4-0.07l-0.4-0.09c-3.6-0.85-6.83-2.55-9.62-5.04c-1.88-1.61-3.55-3.53-4.96-5.71l-0.58-0.9
				l-0.47-0.96c-1.04-2.13-1.52-4.1-1.76-5.46c-1.47-5-1.12-10.33,0.82-14.89c-2.05-4.88-2.25-10.19-0.47-15.24
				c0.89-2.58,2.28-4.96,4.13-7.1c0.08-0.11,0.47-0.6,0.57-0.73l6.14-7.14l7.01-3.03c1.76-1.91,3.87-3.47,6.27-4.62l0.88-0.42
				l0.92-0.32c2.32-0.8,4.76-1.2,7.24-1.2c0.29,0,0.59,0.01,0.88,0.02c0.22-0.01,0.45-0.01,0.67-0.01c2.45,0,4.91,0.38,7.3,1.14
				l0.31,0.1l0.3,0.11c4.12,1.48,7.57,4.14,10.04,7.64c2.67,0.77,5.19,2.1,7.41,3.94c2.21,1.48,4.09,3.32,5.59,5.49l0.26,0.38
				l0.24,0.39c1.6,2.59,2.73,5.38,3.34,8.3c1.05,4.74,0.5,9.5-1.49,13.68c1.83,4.06,2.3,8.62,1.25,12.96l-0.11,0.43
				c-0.98,3.63-2.48,6.72-4.57,9.47l-0.19,0.25l-0.2,0.24c-2.06,2.5-4.43,4.55-7.05,6.09c-0.77,0.48-1.56,0.91-2.37,1.28v4.48
				l-13.74,0.06c-1.32,0.39-2.67,0.64-4.07,0.78C102.48,864.03,101.77,864.06,101.07,864.06z"/>
			<path class="st0" d="M891.84,864.06c-1.18,0-2.39-0.1-3.62-0.31h-2.57l-1.22-0.62c-2.67-0.6-5.07-1.65-7.2-3.16
				c-0.82-0.05-1.63-0.15-2.42-0.3l-0.4-0.07l-0.4-0.1c-3.6-0.85-6.83-2.55-9.62-5.03c-1.88-1.62-3.55-3.54-4.97-5.72l-0.57-0.89
				l-0.46-0.95c-1.04-2.14-1.52-4.12-1.77-5.48c-1.47-5-1.12-10.33,0.82-14.89c-2.06-4.88-2.25-10.19-0.47-15.24
				c0.89-2.58,2.27-4.96,4.13-7.1c0.08-0.11,0.47-0.6,0.57-0.73l0-12.64c0,0,17.02-1,19.43-2.16l0.88-0.42c0,0,5.68-1.52,8.16-1.52
				c0.29,0,0.59,0.01,0.88,0.02c0.22-0.01,0.45-0.01,0.67-0.01c2.45,0,4.9,0.38,7.29,1.14l0.31,0.1l0.3,0.11
				c4.11,1.48,7.57,4.14,10.04,7.64c2.67,0.77,5.19,2.1,7.41,3.94c2.21,1.48,4.08,3.32,5.59,5.49l0.26,0.38l0.24,0.39
				c1.61,2.59,2.73,5.38,3.35,8.31c1.05,4.74,0.5,9.49-1.49,13.68c1.83,4.06,2.3,8.62,1.25,12.95l-0.12,0.45
				c-0.98,3.62-2.48,6.72-4.57,9.46l-0.19,0.25l-0.2,0.24c-2.06,2.5-4.43,4.55-7.05,6.09c-0.77,0.48-1.56,0.91-2.37,1.28l-3.84,2.22
				c-0.52,0.3-1.09,0.52-1.68,0.64l-8.23,1.68c-1.32,0.39-2.67,0.64-4.07,0.78C893.24,864.03,892.54,864.06,891.84,864.06z"/>
		</g>
		<g>
			<g class="st1">
				<path class="st2" d="M90.15,811.9c0.62,0,1.3,0.07,1.92,0.14c0.55,0,1.51-0.63,1.78-1.13c0.07-0.35,0.21-0.77,0.34-1.13
					c0.07-0.21,0.07-0.35,0.14-0.49c0.14-0.49,0.34-0.91,0.62-1.34c0.21-0.35,0.34-0.63,0.48-0.98c0.34-1.2,1.03-2.04,2.05-2.53
					c0.82-0.28,1.64-0.35,2.47-0.28h0.48c0.96-0.07,1.92,0.07,2.81,0.35c1.37,0.49,2.26,1.55,2.67,3.03
					c0.21,0.63,0.41,1.27,0.69,1.9c0.27,0.63,0.48,1.34,0.69,2.04c0.21,0.77,1.03,1.41,1.64,1.41c0.41-0.07,0.82-0.14,1.16-0.21
					c0.14-0.07,0.27-0.07,0.48-0.07c0.48-0.07,0.89-0.14,1.37-0.14c0.34-0.07,0.75-0.07,1.1-0.07c1.03-0.14,1.99,0.21,2.81,0.99
					l0.82,0.63c0.62,0.35,1.1,0.78,1.44,1.27c0.48,0.77,0.89,1.69,1.1,2.74c0.34,1.41-0.07,2.6-1.23,3.66
					c-0.27,0.35-0.55,0.7-0.82,1.13c-0.21,0.49-0.55,0.91-0.89,1.27c-0.41,0.28-0.82,0.49-1.23,0.7c-0.48,0.21-0.96,0.49-1.3,0.84
					c-0.34,0.35-0.75,0.99-0.82,1.55c-0.21,0.91,0.14,1.9,0.75,2.46c0.75,0.77,1.58,1.55,2.4,2.32c0.21,0.21,0.41,0.35,0.62,0.56
					c0.62,0.56,1.16,1.2,1.64,1.83c0.55,0.63,0.96,1.48,0.75,2.32c-0.34,1.27-0.82,2.39-1.58,3.38c-0.75,0.91-1.64,1.76-2.81,2.39
					c-0.68,0.49-1.44,0.63-2.26,0.56c-0.41-0.07-0.82-0.14-1.16-0.21c-0.48-0.07-0.89-0.14-1.3-0.21c-1.1-0.07-2.06,0.35-2.88,1.27
					c-0.07,0.07-0.21,0.14-0.34,0.14c-0.21,0.07-0.34,0.14-0.41,0.21c-0.62,0.7-1.3,1.2-2.06,1.48c-0.07,0.07-0.14,0.07-0.21,0.07
					c0,0.07,0,0.07-0.07,0.07c-0.75,0.49-1.58,0.77-2.47,0.85c-0.55,0.07-1.16,0-1.78-0.14c-0.27-0.07-0.55-0.14-0.89-0.14
					c-0.14-0.07-0.27-0.07-0.48-0.07c-1.03-0.07-1.99-0.28-2.6-0.92c-0.34-0.42-0.69-0.91-0.96-1.41c-0.27-0.56-0.62-1.05-0.96-1.48
					c-0.62-0.56-1.58-0.56-2.47-0.35H90.7c-0.34,0-0.62,0-0.96,0.07c-1.03,0.35-1.92,0.49-2.67,0.35c-0.89-0.21-1.71-0.63-2.47-1.34
					c-0.69-0.56-1.3-1.27-1.85-2.11c-0.21-0.42-0.27-0.91-0.34-1.41c-0.07-0.35-0.14-0.7-0.27-1.06c-0.48-1.34-0.34-3.1,0.55-3.94
					c0.34-0.35,0.75-0.63,1.23-0.91c0.41-0.21,0.82-0.49,1.16-0.77c0.21-0.21,0.48-0.35,0.69-0.56c0.48-0.49,1.03-0.91,1.51-1.34
					c0.89-0.92,0.89-2.96,0.07-4.01c-0.27-0.21-0.55-0.49-0.82-0.7c-0.21-0.14-0.34-0.28-0.48-0.35c-0.34-0.28-0.62-0.56-0.89-0.91
					c-0.21-0.35-0.48-0.7-0.82-0.99c-0.14-0.07-0.27-0.21-0.41-0.28c-0.34-0.21-0.62-0.49-0.82-0.78c-0.89-1.13-1.51-2.46-0.96-3.94
					c0.21-0.63,0.62-1.2,1.1-1.69c0.21-0.21,0.34-0.49,0.55-0.7c0.55-0.78,1.23-1.48,1.99-2.04c0.62-0.42,1.3-0.77,1.99-0.99
					c0.07,0,0.07,0,0.07-0.07C88.57,811.83,89.4,811.9,90.15,811.9z"/>
			</g>
			<g class="st1">
				<path class="st2" d="M880.92,811.9c0.62,0,1.3,0.07,1.92,0.14c0.55,0,1.51-0.63,1.78-1.13c0.07-0.35,0.21-0.77,0.34-1.13
					c0.07-0.21,0.07-0.35,0.14-0.49c0.14-0.49,0.34-0.91,0.62-1.34c0.21-0.35,0.34-0.63,0.48-0.98c0.34-1.2,1.03-2.04,2.05-2.53
					c0.82-0.28,1.64-0.35,2.47-0.28h0.48c0.96-0.07,1.92,0.07,2.81,0.35c1.37,0.49,2.26,1.55,2.67,3.03
					c0.21,0.63,0.41,1.27,0.69,1.9c0.27,0.63,0.48,1.34,0.69,2.04c0.21,0.77,1.03,1.41,1.64,1.41c0.41-0.07,0.82-0.14,1.16-0.21
					c0.14-0.07,0.27-0.07,0.48-0.07c0.48-0.07,0.89-0.14,1.37-0.14c0.34-0.07,0.75-0.07,1.1-0.07c1.03-0.14,1.99,0.21,2.81,0.99
					l0.82,0.63c0.62,0.35,1.1,0.78,1.44,1.27c0.48,0.77,0.89,1.69,1.1,2.74c0.34,1.41-0.07,2.6-1.23,3.66
					c-0.27,0.35-0.55,0.7-0.82,1.13c-0.21,0.49-0.55,0.91-0.89,1.27c-0.41,0.28-0.82,0.49-1.23,0.7c-0.48,0.21-0.96,0.49-1.3,0.84
					s-0.75,0.99-0.82,1.55c-0.21,0.91,0.14,1.9,0.75,2.46c0.75,0.77,1.58,1.55,2.4,2.32c0.21,0.21,0.41,0.35,0.62,0.56
					c0.62,0.56,1.16,1.2,1.64,1.83c0.55,0.63,0.96,1.48,0.75,2.32c-0.34,1.27-0.82,2.39-1.58,3.38c-0.75,0.91-1.64,1.76-2.81,2.39
					c-0.68,0.49-1.44,0.63-2.26,0.56c-0.41-0.07-0.82-0.14-1.16-0.21c-0.48-0.07-0.89-0.14-1.3-0.21c-1.1-0.07-2.06,0.35-2.88,1.27
					c-0.07,0.07-0.21,0.14-0.34,0.14c-0.21,0.07-0.34,0.14-0.41,0.21c-0.62,0.7-1.3,1.2-2.06,1.48c-0.07,0.07-0.14,0.07-0.21,0.07
					c0,0.07,0,0.07-0.07,0.07c-0.75,0.49-1.58,0.77-2.47,0.85c-0.55,0.07-1.16,0-1.78-0.14c-0.27-0.07-0.55-0.14-0.89-0.14
					c-0.14-0.07-0.27-0.07-0.48-0.07c-1.03-0.07-1.99-0.28-2.6-0.92c-0.34-0.42-0.69-0.91-0.96-1.41c-0.27-0.56-0.62-1.05-0.96-1.48
					c-0.62-0.56-1.58-0.56-2.47-0.35h-0.69c-0.34,0-0.62,0-0.96,0.07c-1.03,0.35-1.92,0.49-2.67,0.35
					c-0.89-0.21-1.71-0.63-2.47-1.34c-0.69-0.56-1.3-1.27-1.85-2.11c-0.21-0.42-0.27-0.91-0.34-1.41c-0.07-0.35-0.14-0.7-0.27-1.06
					c-0.48-1.34-0.34-3.1,0.55-3.94c0.34-0.35,0.75-0.63,1.23-0.91c0.41-0.21,0.82-0.49,1.16-0.77c0.21-0.21,0.48-0.35,0.69-0.56
					c0.48-0.49,1.03-0.91,1.51-1.34c0.89-0.92,0.89-2.96,0.07-4.01c-0.27-0.21-0.55-0.49-0.82-0.7c-0.21-0.14-0.34-0.28-0.48-0.35
					c-0.34-0.28-0.62-0.56-0.89-0.91c-0.21-0.35-0.48-0.7-0.82-0.99c-0.14-0.07-0.27-0.21-0.41-0.28c-0.34-0.21-0.62-0.49-0.82-0.78
					c-0.89-1.13-1.51-2.46-0.96-3.94c0.21-0.63,0.62-1.2,1.1-1.69c0.21-0.21,0.34-0.49,0.55-0.7c0.55-0.78,1.23-1.48,1.99-2.04
					c0.62-0.42,1.3-0.77,1.99-0.99c0.07,0,0.07,0,0.07-0.07C879.34,811.83,880.17,811.9,880.92,811.9z"/>
			</g>
		</g>
	</g>
	<g>
		<g class="st1">
			<g>
				<path class="st3" d="M885.12,815.6l0.2,0.02h0.2c2.05,0,4.11-1.51,4.92-2.98l0.27-0.5l0.11-0.56c0.03-0.16,0.1-0.34,0.16-0.5
					l0.07-0.2c0.04-0.12,0.18-0.64,0.18-0.64c0.02-0.07,0.05-0.16,0.18-0.35c0.38-0.65,0.6-1.09,0.8-1.62l0.06-0.16l0.05-0.17
					c0.02-0.07,0.04-0.12,0.06-0.16c-0.24-0.05-0.48-0.07-0.7-0.07l-0.36,0.02h-0.76c0,0-0.34-0.02-0.43-0.02
					c-0.15,0-0.28,0.01-0.41,0.03c-0.02,0.04-0.05,0.11-0.08,0.2l-0.05,0.17l-0.06,0.16c-0.21,0.52-0.42,0.96-0.8,1.62
					c-0.12,0.19-0.16,0.28-0.18,0.35c0,0-0.14,0.52-0.18,0.64l-0.07,0.2c-0.06,0.16-0.13,0.34-0.16,0.5l-0.11,0.56l-0.27,0.5
					c-0.68,1.23-2.24,2.48-3.93,2.85C884.25,815.51,884.7,815.55,885.12,815.6z"/>
				<path class="st3" d="M880.33,838.46c-0.31-0.25-0.61-0.57-0.89-0.96c0-0.06-0.04-0.37-0.04-0.37l-0.02-0.1
					c-0.09-0.43-0.2-1.03-0.46-1.68c-0.02-0.05-0.03-0.17-0.03-0.27c0.06-0.04,0.13-0.09,0.22-0.14c0.58-0.31,1.17-0.7,1.7-1.14
					l0.18-0.15c0.32-0.23,0.57-0.44,0.79-0.67c0.25-0.25,0.52-0.48,0.78-0.7l0.63-0.54l0.09-0.1c2.1-2.16,2.26-6.23,0.33-8.71
					l-0.29-0.37l-0.37-0.28l-0.2-0.17c-0.2-0.18-0.41-0.36-0.62-0.52c0,0-0.39-0.3-0.5-0.37c-0.05-0.05-0.09-0.09-0.13-0.14
					c-0.42-0.65-0.91-1.21-1.48-1.68l-0.3-0.24l-0.13-0.07c-0.08-0.06-0.16-0.12-0.24-0.17c-0.24-0.31-0.34-0.5-0.39-0.6
					c0.04-0.08,0.12-0.19,0.27-0.34c0.23-0.23,0.44-0.51,0.64-0.8c0,0,0.09-0.1,0.09-0.1l0.16-0.23c0.33-0.47,0.75-0.9,1.2-1.24
					c0.04-0.03,0.1-0.06,0.15-0.08c-0.2-0.02-0.41-0.05-0.6-0.05c-0.61,0-1.22-0.04-1.83-0.1c-0.15,0.08-0.3,0.16-0.41,0.23
					c-0.46,0.34-0.87,0.77-1.2,1.24l-0.16,0.23c0,0-0.09,0.09-0.09,0.1c-0.2,0.29-0.42,0.57-0.64,0.8
					c-0.15,0.16-0.22,0.26-0.27,0.34c0.04,0.1,0.15,0.29,0.39,0.6c0.08,0.05,0.16,0.11,0.24,0.17l0.13,0.07l0.3,0.24
					c0.56,0.46,1.06,1.03,1.48,1.68c0.04,0.05,0.09,0.09,0.13,0.14c0.11,0.07,0.5,0.37,0.5,0.37c0.2,0.16,0.41,0.34,0.62,0.52
					l0.2,0.17l0.37,0.28l0.29,0.37c1.93,2.48,1.77,6.55-0.33,8.71l-0.09,0.1l-0.63,0.54c-0.26,0.22-0.53,0.44-0.78,0.7
					c-0.22,0.23-0.47,0.44-0.79,0.67l-0.18,0.15c-0.53,0.44-1.11,0.83-1.7,1.14c-0.09,0.05-0.16,0.1-0.22,0.14
					c0,0.11,0.01,0.22,0.03,0.27c0.26,0.66,0.37,1.25,0.46,1.68l0.02,0.1c0,0,0.04,0.31,0.04,0.37c0.28,0.39,0.58,0.71,0.89,0.96
					l0.18,0.16c0.22,0.21,0.43,0.34,0.68,0.42c0.11-0.01,0.37-0.05,0.85-0.21l0.22-0.07l0.22-0.05c0.27-0.05,0.49-0.08,0.72-0.1
					L880.33,838.46z"/>
				<path class="st3" d="M902.38,816.47h0.31c0,0,1.25-0.22,1.57-0.28l0.1-0.01l-0.19-0.14l-0.07-0.06l-0.07,0.01c0,0-0.6,0-0.62,0
					l-0.36,0.07h-0.36c-0.23,0-0.43,0.04-0.66,0.08l-0.47,0.06c-0.09,0.02-0.27,0.05-0.47,0.09
					C901.52,816.39,901.95,816.47,902.38,816.47z"/>
				<path class="st3" d="M904.07,839.05c-0.02,0-0.04-0.01-0.06-0.01l-0.19-0.03c0,0-0.5-0.03-0.65-0.03
					c-0.46,0-0.91,0.05-1.35,0.14c0.23,0.04,0.45,0.08,0.71,0.12c0,0,0.69,0.13,0.96,0.18l0.23-0.13
					C903.85,839.22,903.95,839.12,904.07,839.05z"/>
				<path class="st3" d="M903.79,839.46c0,0-0.2-0.04-0.2-0.03C903.65,839.44,903.72,839.45,903.79,839.46z"/>
				<path class="st3" d="M890.09,840.24l-0.17-0.2l-0.2-0.18c-1.02-0.93-2.35-1.42-3.86-1.42c-0.45,0-0.92,0.04-1.39,0.13h-0.06
					c1,0.2,1.89,0.63,2.62,1.29l0.2,0.18l0.17,0.2c0.55,0.67,0.99,1.35,1.35,2.06c0.07,0.12,0.15,0.25,0.24,0.38
					c0.08,0.01,0.17,0.02,0.3,0.03c0.24,0,0.57,0.02,0.95,0.1c0.44,0.04,0.79,0.13,1.01,0.18l0-0.84l0.11,0
					C891.01,841.5,890.6,840.87,890.09,840.24z"/>
			</g>
			<g>
				<path class="st3" d="M89.57,838.47c-0.31-0.26-0.61-0.58-0.89-0.96c0-0.06-0.01-0.17-0.03-0.28l-0.03-0.19
					c-0.08-0.43-0.2-1.02-0.45-1.68c-0.02-0.06-0.03-0.17-0.03-0.28c0.06-0.04,0.13-0.09,0.22-0.14c0.58-0.31,1.17-0.7,1.7-1.14
					l0.18-0.16c0.32-0.23,0.57-0.44,0.79-0.67c0.24-0.25,0.52-0.47,0.78-0.69l0.63-0.54l0.1-0.1c2.1-2.16,2.26-6.24,0.33-8.71
					l-0.28-0.36l-0.37-0.28l-0.2-0.18c-0.2-0.18-0.41-0.36-0.61-0.52c0,0-0.4-0.3-0.5-0.38c-0.05-0.04-0.09-0.09-0.13-0.13
					c-0.41-0.65-0.91-1.21-1.47-1.67l-0.3-0.25l-0.14-0.07c-0.08-0.06-0.16-0.11-0.24-0.17c-0.24-0.31-0.34-0.5-0.39-0.6
					c0.04-0.08,0.12-0.18,0.27-0.34c0.23-0.23,0.44-0.51,0.64-0.8l0.09-0.09l0.17-0.23c0.33-0.47,0.75-0.9,1.21-1.24
					c0.04-0.03,0.1-0.06,0.15-0.08c-0.2-0.02-0.41-0.05-0.6-0.05c-0.61,0-1.23-0.04-1.83-0.1c-0.15,0.08-0.3,0.16-0.41,0.23
					c-0.46,0.34-0.87,0.77-1.21,1.24l-0.17,0.23l-0.09,0.09c-0.2,0.29-0.41,0.57-0.64,0.8c-0.15,0.15-0.22,0.26-0.27,0.34
					c0.04,0.1,0.15,0.29,0.39,0.6c0.08,0.05,0.16,0.11,0.24,0.17l0.14,0.07l0.3,0.25c0.56,0.46,1.06,1.03,1.47,1.67
					c0.04,0.05,0.08,0.09,0.13,0.13c0.1,0.07,0.5,0.38,0.5,0.38c0.2,0.16,0.41,0.34,0.61,0.52l0.2,0.18l0.37,0.28l0.28,0.36
					c1.93,2.48,1.77,6.55-0.33,8.71l-0.1,0.1l-0.63,0.54c-0.26,0.22-0.54,0.44-0.78,0.69c-0.23,0.23-0.48,0.44-0.79,0.67l-0.18,0.16
					c-0.53,0.44-1.11,0.83-1.7,1.14c-0.09,0.05-0.16,0.1-0.22,0.14c0,0.11,0.01,0.22,0.03,0.28c0.26,0.65,0.37,1.24,0.45,1.68
					l0.03,0.19c0.01,0.11,0.03,0.22,0.03,0.28c0.28,0.38,0.58,0.71,0.89,0.96l0.17,0.15c0.22,0.21,0.43,0.34,0.68,0.42
					c0.11-0.01,0.37-0.05,0.84-0.21l0.22-0.07l0.23-0.05c0.27-0.05,0.49-0.08,0.72-0.1L89.57,838.47z"/>
				<path class="st3" d="M94.35,815.6l0.2,0.02h0.2c2.05,0,4.11-1.51,4.92-2.98l0.27-0.49l0.11-0.55c0.03-0.16,0.1-0.35,0.16-0.51
					l0.07-0.2c0.04-0.13,0.18-0.64,0.18-0.64c0.02-0.07,0.05-0.17,0.18-0.36c0.39-0.65,0.6-1.1,0.81-1.63l0.06-0.15l0.05-0.16
					c0.02-0.08,0.04-0.12,0.06-0.16c-0.24-0.04-0.48-0.07-0.7-0.07l-0.36,0.02h-0.76c0,0-0.34-0.02-0.43-0.02
					c-0.15,0-0.28,0.01-0.41,0.03c-0.02,0.04-0.05,0.11-0.08,0.21l-0.05,0.16l-0.06,0.15c-0.2,0.53-0.42,0.98-0.81,1.63
					c-0.12,0.19-0.16,0.29-0.18,0.36c0,0-0.14,0.5-0.18,0.64l-0.07,0.2c-0.06,0.16-0.13,0.35-0.16,0.51l-0.11,0.55l-0.27,0.49
					c-0.68,1.23-2.24,2.48-3.93,2.85C93.48,815.51,93.94,815.55,94.35,815.6z"/>
				<path class="st3" d="M111.61,816.47h0.31l0.31-0.05c0.55-0.09,0.94-0.16,1.26-0.23l0.1-0.01l-0.19-0.14l-0.07-0.06l-0.07,0.01
					c0,0-0.6,0-0.62,0l-0.36,0.07h-0.36c-0.23,0-0.43,0.04-0.66,0.08l-0.47,0.06c-0.14,0.03-0.3,0.06-0.46,0.09
					C110.75,816.39,111.18,816.47,111.61,816.47z"/>
				<path class="st3" d="M99.32,840.24l-0.17-0.2l-0.19-0.18c-1.02-0.93-2.35-1.42-3.86-1.42c-0.45,0-0.91,0.04-1.39,0.13h-0.06
					c1,0.2,1.89,0.63,2.62,1.29l0.19,0.18l0.17,0.2c0.55,0.68,0.99,1.35,1.35,2.06c0.07,0.12,0.15,0.25,0.24,0.38
					c0.08,0.01,0.17,0.02,0.3,0.03c0.24,0,0.57,0.02,0.95,0.1c0.44,0.04,0.79,0.13,1.01,0.18l0-0.84l0.11,0
					C100.24,841.5,99.83,840.87,99.32,840.24z"/>
				<path class="st3" d="M113.02,839.46c0,0-0.2-0.04-0.2-0.03C112.88,839.44,112.95,839.45,113.02,839.46z"/>
				<path class="st3" d="M113.3,839.05c-0.02,0-0.04-0.01-0.06-0.01l-0.19-0.03c0,0-0.5-0.03-0.65-0.03c-0.46,0-0.91,0.05-1.35,0.14
					c0.23,0.04,0.45,0.08,0.71,0.12c0,0,0.69,0.13,0.96,0.18l0.23-0.13C113.08,839.22,113.18,839.12,113.3,839.05z"/>
			</g>
		</g>
	</g>
	<g id="CONJUNTO_1_">
		<g id="SOMBRA">
			<g id="DELIVERY_1_">
				<path class="st4" d="M180.37,737.48c10.6,0,20.45,1.9,29.54,5.69c9.09,3.8,17.01,9.03,23.75,15.7
					c6.74,6.67,12.14,14.62,16.19,23.85c4.05,9.22,6.28,19.27,6.67,30.13v3.34c0,9.95-1.64,19.5-4.91,28.66
					c-3.67,10.21-9.1,19.04-16.29,26.5c-5.89,6.15-12.37,10.83-19.43,14.04c-7.07,3.21-14.53,4.81-22.38,4.81h-47.97
					c-5.05,0-9.15-4.1-9.15-9.15V784.7c0-1.79-1.45-3.24-3.24-3.24l0,0c-2.66,0-4.81-2.15-4.81-4.81v-29.43
					c0-5.37,4.36-9.73,9.73-9.73H180.37z M183.7,846.63h14.04c1.79,0,3.24-1.45,3.24-3.24v-0.1l1.96-53l0,0
					c0.21-5.03-3.81-9.23-8.84-9.23h-12.5c-1.65,0-2.97,1.36-2.93,3l1.41,59.03C180.13,845.06,181.74,846.63,183.7,846.63z"/>
				<path class="st4" d="M304.56,838.84v5.3c0,2.01,1.63,3.65,3.65,3.65h34.47c2.01,0,3.65,1.63,3.65,3.65v31.82
					c0,2.01-1.63,3.65-3.65,3.65h-57.35c-10.86,0-19.66-8.8-19.66-19.66V785.9c0-1.33-1.08-2.41-2.41-2.41h0
					c-2.7,0-4.88-2.19-4.88-4.88v-19.57c0-4.44,3.6-8.03,8.03-8.03h71.41c2.01,0,3.65,1.63,3.65,3.65v25.19
					c0,2.01-1.63,3.65-3.65,3.65H308.2c-2.01,0-3.65,1.63-3.65,3.65v11.93c0,2.01,1.63,3.65,3.65,3.65h9.06
					c2.01,0,3.65,1.63,3.65,3.65v25.19c0,2.01-1.63,3.65-3.65,3.65h-9.06C306.19,835.2,304.56,836.83,304.56,838.84z"/>
				<path class="st4" d="M389.85,774.18v83.68c0,5.85,4.74,10.6,10.6,10.6h25.53c2.01,0,3.65,1.63,3.65,3.65v19.46
					c0,5.18-4.2,9.38-9.38,9.38h-60.77c-4.83,0-8.74-3.91-8.74-8.74V771.29c0-3.33,2.7-6.04,6.04-6.04h24.16
					C385.86,765.26,389.85,769.25,389.85,774.18z"/>
				<path class="st4" d="M434.05,883.81V767.29c0-4.16,3.37-7.52,7.52-7.52h19.78c6.52,0,11.81,5.29,11.81,11.81V888.3
					c0,4.07-3.3,7.37-7.37,7.37h-19.88C439.36,895.67,434.05,890.36,434.05,883.81z"/>
				<path class="st4" d="M575.52,753h19.54c2.45,0,4.21,2.37,3.48,4.72l-4.74,15.39l-30.49,99.88l-1.63,5.33
					c-1.92,6.28-7.72,10.58-14.29,10.58h-13.72c-9.56,0-18-6.26-20.76-15.42l-1.75-5.8l-17.46-56.79l-14.7-48.33
					c-0.71-2.34,1.04-4.71,3.49-4.71h33.25c1.61,0,3.03,1.05,3.49,2.59l11.81,39.17l6.76,22.15c2.1,6.86,11.8,6.87,13.91,0.01
					l17.33-56.41l2.97-9.79C572.5,754.05,573.91,753,575.52,753z"/>
				<path class="st4" d="M650.59,838.84v0.27c0,4.79,3.89,8.68,8.68,8.68h29.44c2.01,0,3.65,1.63,3.65,3.65v31.82
					c0,2.01-1.63,3.65-3.65,3.65h-56.85c-11.13,0-20.16-9.02-20.16-20.16v-79.61c0-2.01-1.63-3.65-3.65-3.65l0,0
					c-2.01,0-3.65-1.63-3.65-3.65v-20.56c0-4.57,3.71-8.28,8.28-8.28h65.45c5.17,0,9.36,4.19,9.36,9.36v14.14
					c0,4.96-4.02,8.98-8.98,8.98h-24.28c-2.01,0-3.65,1.63-3.65,3.65v6.3c0,5.12,4.15,9.28,9.28,9.28l0,0
					c3.91,0,7.08,3.17,7.08,7.08v18.07c0,4.05-3.28,7.33-7.33,7.33h-5.37C652.23,835.2,650.59,836.83,650.59,838.84z"/>
				<path class="st4" d="M794.89,867.57l11.5,23.01c1.21,2.42-0.55,5.28-3.26,5.28h-35.62c-1.37,0-2.62-0.77-3.25-1.99l-4.51-8.84
					l-13.99-27.66c-1.26-2.49-5.01-1.59-5.01,1.2v33.64c0,2.01-1.63,3.65-3.65,3.65h-31.82c-2.01,0-3.65-1.63-3.65-3.65v-41.1
					c0-2.01-1.63-3.65-3.65-3.65l0,0c-2.01,0-3.65-1.63-3.65-3.65V812c0-2.01,1.63-3.65,3.65-3.65l0,0c2.01,0,3.65-1.63,3.65-3.65
					v-35.12c0-5.32,4.31-9.63,9.63-9.63h44.95c6.04,0,11.71,1.14,17.02,3.43c5.3,2.28,9.94,5.41,13.92,9.39
					c3.98,3.98,7.1,8.62,9.39,13.92c2.28,5.3,3.43,10.98,3.43,17.02c0,7.51-1.73,14.4-5.19,20.66c-2.99,5.4-6.82,9.95-11.5,13.65
					c-1.33,1.05-1.7,2.92-0.94,4.43L794.89,867.57z M742.3,817.3c0,2.01,1.63,3.65,3.65,3.65h3.47c5.87,0,10.43-5.1,9.77-10.93
					l-0.54-4.75l-0.88-8.18l-0.25-1.91c-0.24-1.82-1.78-3.17-3.62-3.17h-7.96c-2.01,0-3.65,1.63-3.65,3.65V817.3z"/>
				<path class="st4" d="M860.16,759.8l5.41-10.51c1.43-2.77,4.28-4.52,7.4-4.52h3.25c6.26,0,15.25,5.06,11.6,13.71l-7.68,14.02
					l-13.83,29.2c-1.3,2.49-6.15,14.87-6.15,17.67v52.75c0,4.6-3.73,8.32-8.32,8.32H836c-4.6,0-8.32-3.73-8.32-8.32v-45.59
					c0-1.31-0.31-2.6-0.9-3.77l-6.17-12.15l-19.23-37.57l-8.43-16.1c-2.9-5.54,1.12-12.18,7.37-12.18h25.22
					c3.08,0,5.9,1.7,7.35,4.41l3.18,5.97v0.22l1.99,3.54l0.35,0.7C842.89,768.49,855.53,768.6,860.16,759.8L860.16,759.8z"/>
			</g>
			<g id="REWORK_1_">
				<path class="st5" d="M740.63,720.22c-11.46,0.03-21.88-8.41-28.62-18.7c-9.9-25.27-11.83-66.87-5.69-92.54
					c4.32-18.07,65.89-52.13,84.91-69.46c6.43-5.86,65.05-39.74,6.33-24.72c-35.87,9.17-63.52,10.84-74.51,5.24
					c-22.78-11.63,4.88-73.65,8.42-86.12c1.95-6.87,6.24-19.13,20.77-19.17c5.05-0.01,24.95,5.3,35.58,6.76
					c122.74,16.81,140.34-15.29,163.3,0.79c10.62,7.44,18.49,22.84,18.96,35.04c0.66,17.31,5.16,46.06-13.83,61.97
					c-41.67,34.92-39.82,39.39-77.65,68.6c-26.79,20.69-37.74,27.54-41.25,31.51c-6.3,7.12,12.11,11.1,46.58-6.15
					c19.02-9.51,52.22-15.39,62.34-15.23c22.78,0.37,27.49,16.23,21.77,50.69c-3.5,21.06-7.71,52.46-27.65,63.18
					c-15.07,8.11-50.61,4.42-56.58,3.71c-18.47-2.21-67.09-3.4-89.36-0.39c-15.29,2.06-31.04,2.08-46.66,4.42
					C745.17,720.02,742.82,720.21,740.63,720.22z"/>
				<path id="F_3_" class="st5" d="M122.26,719.44c-37.29,0.11-78.1-5.82-85.58-58.16c-4.81-33.64,38.73-204.67,47.89-248.56
					c9.24-44.29,27.28-127.45,31.46-144c3.89-15.42-9.02-22.76-32.77-21.77c-48.65,2.04-64.44,2.24-56.54-19.77
					C47.89,168.13,69,161.1,82.38,160.51c196.79-8.72,291.81-17.3,365.04-74.56c2.58-2.02,5.43-3.8,8.95-3.81
					c2.51-0.01,5.08,0.66,7.62,1.99c5.73,2.99,7.67,10.17,7.05,15.64c-8.09,103.41-20.67,143.59-88.33,153.59
					c-71.66,10.59-142.69-4.36-154.64,15.47c-4.25,7.06-20.46,31.88,59.92,23.16c41.25-4.48,91.91-12.95,109.67-19.94
					c39.05-15.37,1.17,77.01-10.39,95.96c-12.86,21.09-92.27,2.06-125.96-0.15c-42.48-2.78-61.49,12.79-64.5,23.47
					c-17.5,61.97-48.07,209.9-40.51,259.98C162.76,693.96,180.01,719.45,122.26,719.44z"/>
				<g>
					<path class="st5" d="M356.37,616.86c144.28,1.88,123.45-293.8-55.29-189.09c18.74-46.26-76.63-46.74-84.36-12.4
						c-1.96,8.7-13.53,77.47-28.26,145.94c-18.8,87.37-21.54,160.16,48.45,160.26c35.96,0.05,56.11,2.02,43.4-26.25
						c-9.86-21.94-12.74-54.36-8.28-76.25c0.44-2.14,3.98-1.75,3.95,0.45c-0.9,64.31,23.41,83.45,37.13,94.67
						c8.31,6.8,27.85,6.8,42.14,6.62c43.07-0.56,54.66-5,62.36-15.08c10.24-13.42,7.36-25.19,7.68-42.48
						c0.84-45.4-22.79-37.17-47.28-30.57c-22,5.93-47.24,0.78-49.97-13.31C327.02,614.17,338.97,616.63,356.37,616.86z
						 M356.87,523.39c-4.56,14.19-35.87,40.61-81.17,28.77C278.34,455.77,370.74,480.2,356.87,523.39z"/>
					<path class="st5" d="M463.88,709.27c-14.66-38.09-3.16-153.95,2.4-188.23c2.77-17.12,10.02-26.4,29.7-28.85
						c17.85-2.23,73.76-0.7,68.1,16.85c-13.2,44.35-21.31,125.06-16.28,170.52c1.94,17.49,10.47,22.53,3.77,31.4
						C541.96,723.7,469.77,725.23,463.88,709.27z"/>
					<path class="st5" d="M575.31,441.1c-7.83,31.34-37.53,49.09-69.79,41.74c-26.93-6.14-43.07-32.81-33.91-56.56
						c7.13-18.49,20.17-31.57,39-38.7c14.58-5.53,29.79-3.57,44.65,4.47C573.67,401.99,580.64,419.78,575.31,441.1z"/>
				</g>
				<path id="F_2_" class="st5" d="M581.38,682.11c14.95,41.11,37.77,38.41,75.06,38.31c36.72-3.26,32.02-19.62,25.15-39.22
					c-27.75-79.17-0.39-186.36,23.2-247.25c19.36-49.96,35.77-42.33,43.63-39.99c21,6.25,53.04,9.49,83.15,9.4
					c14.22-0.04,55.57-3.06,66.23-7.16c50.8-19.56,60.94-14.81,69.03-118.22c0.61-5.47-1.34-12.61-7.05-15.64
					c-5.36-2.84-13.35,0.83-16.57,1.83c-51.59,15.91-111.55,22.89-168.16,21.89c-183.8-3.25-252.01-21.9-327.07-3.53
					c-9.78,2.39-14.99,26.91-20.8,65.13c-2.48,16.31,10.14,27.99,26.55,26.27c8.68-0.91,108.87-12.15,138.64-2.6
					c4.37,1.4,11.41,7.14,10.08,12.66C581.25,472.21,560.16,623.79,581.38,682.11z"/>
			</g>
		</g>
		<g id="CONJUNTO">
			<g id="DELIVERY">
				<path class="st6" d="M175.54,730.79c10.6,0,20.45,1.9,29.54,5.69c9.09,3.8,17.01,9.03,23.75,15.7
					c6.74,6.67,12.14,14.62,16.19,23.85c4.05,9.22,6.28,19.27,6.67,30.13v3.34c0,9.95-1.64,19.5-4.91,28.66
					c-3.67,10.21-9.1,19.04-16.29,26.5c-5.89,6.15-12.37,10.83-19.43,14.04c-7.07,3.21-14.53,4.81-22.38,4.81h-47.97
					c-5.05,0-9.15-4.1-9.15-9.15v-96.36c0-1.79-1.45-3.24-3.24-3.24l0,0c-2.66,0-4.81-2.15-4.81-4.81v-29.43
					c0-5.37,4.36-9.73,9.73-9.73H175.54z M178.88,839.94h14.04c1.79,0,3.24-1.45,3.24-3.24v-0.1l1.96-53l0,0
					c0.21-5.03-3.81-9.23-8.84-9.23h-12.5c-1.65,0-2.97,1.36-2.93,3l1.41,59.03C175.31,838.37,176.91,839.94,178.88,839.94z"/>
				<path class="st6" d="M299.73,832.16v5.3c0,2.01,1.63,3.65,3.65,3.65h34.47c2.01,0,3.65,1.63,3.65,3.65v31.82
					c0,2.01-1.63,3.65-3.65,3.65H280.5c-10.86,0-19.66-8.8-19.66-19.66v-81.34c0-1.33-1.08-2.41-2.41-2.41l0,0
					c-2.7,0-4.88-2.19-4.88-4.88v-19.57c0-4.44,3.6-8.03,8.03-8.03h71.41c2.01,0,3.65,1.63,3.65,3.65v25.19
					c0,2.01-1.63,3.65-3.65,3.65h-29.61c-2.01,0-3.65,1.63-3.65,3.65v11.93c0,2.01,1.63,3.65,3.65,3.65h9.06
					c2.01,0,3.65,1.63,3.65,3.65v25.19c0,2.01-1.63,3.65-3.65,3.65h-9.06C301.36,828.51,299.73,830.14,299.73,832.16z"/>
				<path class="st6" d="M385.03,767.49v83.68c0,5.85,4.74,10.6,10.6,10.6h25.53c2.01,0,3.65,1.63,3.65,3.65v19.46
					c0,5.18-4.2,9.38-9.38,9.38h-60.77c-4.83,0-8.74-3.91-8.74-8.74V764.61c0-3.33,2.7-6.04,6.04-6.04h24.16
					C381.03,758.57,385.03,762.56,385.03,767.49z"/>
				<path class="st6" d="M429.22,877.12V760.61c0-4.16,3.37-7.52,7.52-7.52h19.78c6.52,0,11.81,5.29,11.81,11.81v116.72
					c0,4.07-3.3,7.37-7.37,7.37h-19.88C434.53,888.98,429.22,883.67,429.22,877.12z"/>
				<path class="st6" d="M570.69,746.31h19.54c2.45,0,4.21,2.37,3.48,4.72l-4.74,15.39l-30.49,99.88l-1.63,5.33
					c-1.92,6.28-7.72,10.58-14.29,10.58h-13.72c-9.56,0-18-6.26-20.76-15.42l-1.75-5.8l-17.46-56.79l-14.7-48.33
					c-0.71-2.34,1.04-4.71,3.49-4.71h33.25c1.61,0,3.03,1.05,3.49,2.59l11.81,39.17l6.76,22.15c2.1,6.86,11.8,6.87,13.91,0.01
					l17.33-56.41l2.97-9.79C567.67,747.36,569.09,746.31,570.69,746.31z"/>
				<path class="st6" d="M645.77,832.16v0.27c0,4.79,3.89,8.68,8.68,8.68h29.44c2.01,0,3.65,1.63,3.65,3.65v31.82
					c0,2.01-1.63,3.65-3.65,3.65h-56.85c-11.13,0-20.16-9.02-20.16-20.16v-79.61c0-2.01-1.63-3.65-3.65-3.65l0,0
					c-2.01,0-3.65-1.63-3.65-3.65v-20.56c0-4.57,3.71-8.28,8.28-8.28h65.45c5.17,0,9.36,4.19,9.36,9.36v14.14
					c0,4.96-4.02,8.98-8.98,8.98h-24.28c-2.01,0-3.65,1.63-3.65,3.65v6.3c0,5.12,4.15,9.28,9.28,9.28l0,0
					c3.91,0,7.08,3.17,7.08,7.08v18.07c0,4.05-3.28,7.33-7.33,7.33h-5.37C647.4,828.51,645.77,830.14,645.77,832.16z"/>
				<path class="st6" d="M790.07,860.88l11.5,23.01c1.21,2.42-0.55,5.28-3.26,5.28h-35.62c-1.37,0-2.62-0.77-3.25-1.99l-4.51-8.84
					l-13.99-27.66c-1.26-2.49-5.01-1.59-5.01,1.2v33.64c0,2.01-1.63,3.65-3.65,3.65h-31.82c-2.01,0-3.65-1.63-3.65-3.65v-41.1
					c0-2.01-1.63-3.65-3.65-3.65l0,0c-2.01,0-3.65-1.63-3.65-3.65v-31.82c0-2.01,1.63-3.65,3.65-3.65l0,0
					c2.01,0,3.65-1.63,3.65-3.65V762.9c0-5.32,4.31-9.63,9.63-9.63h44.95c6.04,0,11.71,1.14,17.02,3.43
					c5.3,2.28,9.94,5.41,13.92,9.39c3.98,3.98,7.1,8.62,9.39,13.92c2.28,5.3,3.43,10.98,3.43,17.02c0,7.51-1.73,14.4-5.19,20.66
					c-2.99,5.4-6.82,9.95-11.5,13.65c-1.33,1.05-1.7,2.92-0.94,4.43L790.07,860.88z M737.48,810.61c0,2.01,1.63,3.65,3.65,3.65h3.47
					c5.87,0,10.43-5.1,9.77-10.93l-0.54-4.75l-0.88-8.18l-0.25-1.91c-0.24-1.82-1.78-3.17-3.62-3.17h-7.96
					c-2.01,0-3.65,1.63-3.65,3.65V810.61z"/>
				<path class="st6" d="M855.33,753.12l5.41-10.51c1.43-2.77,4.28-4.52,7.4-4.52h3.25c6.26,0,15.25,5.06,11.6,13.71l-7.68,14.02
					l-13.83,29.2c-1.3,2.49-6.15,14.87-6.15,17.67v52.75c0,4.6-3.73,8.32-8.32,8.32h-15.83c-4.6,0-8.32-3.73-8.32-8.32v-45.59
					c0-1.31-0.31-2.6-0.9-3.77l-6.17-12.15l-19.23-37.57l-8.43-16.1c-2.9-5.54,1.12-12.18,7.37-12.18h25.22
					c3.08,0,5.9,1.7,7.35,4.41l3.18,5.97v0.22l1.99,3.54l0.35,0.7C838.07,761.81,850.7,761.91,855.33,753.12L855.33,753.12z"/>
			</g>
			<g id="REWORK_2_">
				<path class="st7" d="M735.8,713.53c-11.46,0.03-21.88-8.41-28.62-18.7c-9.9-25.27-11.83-66.87-5.69-92.54
					c4.32-18.07,65.89-52.13,84.91-69.46c6.43-5.86,65.05-39.74,6.33-24.72c-35.87,9.18-63.52,10.84-74.51,5.24
					c-22.78-11.63,4.88-73.65,8.42-86.12c1.95-6.87,6.24-19.13,20.77-19.17c5.05-0.01,24.95,5.3,35.58,6.76
					c122.74,16.81,140.34-15.29,163.3,0.79c10.62,7.44,18.49,22.84,18.96,35.04c0.66,17.31,5.16,46.06-13.83,61.97
					c-41.67,34.92-39.82,39.39-77.65,68.6c-26.79,20.69-37.74,27.54-41.25,31.51c-6.3,7.12,12.11,11.1,46.58-6.15
					c19.02-9.51,52.22-15.39,62.34-15.23c22.78,0.37,27.49,16.23,21.77,50.69c-3.5,21.06-7.71,52.46-27.65,63.18
					c-15.07,8.11-50.61,4.42-56.58,3.71c-18.47-2.21-67.09-3.4-89.36-0.39c-15.29,2.06-31.04,2.08-46.66,4.42
					C740.34,713.33,738,713.52,735.8,713.53z"/>
				<path id="F_4_" class="st7" d="M117.44,712.76c-37.29,0.11-78.1-5.82-85.58-58.16c-4.81-33.64,38.73-204.67,47.89-248.56
					c9.24-44.29,27.28-127.45,31.46-144c3.89-15.42-9.02-22.76-32.77-21.77c-48.65,2.04-64.44,2.24-56.54-19.77
					c21.17-59.05,42.28-66.08,55.67-66.67c196.79-8.72,291.81-17.3,365.04-74.56c2.58-2.02,5.43-3.8,8.95-3.81
					c2.51-0.01,5.08,0.66,7.62,1.99c5.73,2.99,7.67,10.17,7.05,15.64c-8.09,103.41-20.67,143.59-88.33,153.59
					c-71.66,10.59-142.69-4.36-154.64,15.47c-4.25,7.06-20.46,31.88,59.92,23.16c41.25-4.48,91.91-12.95,109.67-19.94
					c39.05-15.37,1.17,77.01-10.39,95.96c-12.86,21.09-92.27,2.06-125.96-0.15c-42.48-2.78-61.49,12.79-64.5,23.47
					c-17.5,61.97-48.07,209.9-40.51,259.98C157.93,687.27,175.18,712.76,117.44,712.76z"/>
				<g>
					<path class="st7" d="M351.54,610.17c144.28,1.88,123.45-293.8-55.29-189.09c18.74-46.26-76.63-46.74-84.36-12.4
						c-1.96,8.7-13.53,77.47-28.26,145.94c-18.8,87.37-21.54,160.16,48.45,160.26c35.96,0.05,56.11,2.02,43.4-26.25
						c-9.86-21.94-12.74-54.36-8.28-76.25c0.44-2.14,3.98-1.75,3.95,0.45c-0.9,64.31,23.41,83.45,37.13,94.67
						c8.31,6.8,27.85,6.8,42.14,6.62c43.07-0.56,54.66-5,62.36-15.08c10.24-13.42,7.36-25.19,7.68-42.48
						c0.84-45.4-22.79-37.17-47.28-30.57c-22,5.93-47.24,0.78-49.97-13.31C322.2,607.48,334.14,609.94,351.54,610.17z M352.05,516.7
						c-4.56,14.19-35.87,40.61-81.17,28.77C273.52,449.08,365.91,473.51,352.05,516.7z"/>
					<path class="st7" d="M459.05,702.58c-14.66-38.09-3.16-153.95,2.4-188.23c2.77-17.12,10.02-26.4,29.7-28.85
						c17.85-2.23,73.76-0.7,68.1,16.85c-13.2,44.35-21.31,125.06-16.28,170.52c1.94,17.49,10.47,22.53,3.77,31.4
						C537.13,717.01,464.95,718.54,459.05,702.58z"/>
					<path class="st7" d="M570.48,434.41c-7.83,31.34-37.53,49.09-69.79,41.74c-26.93-6.14-43.07-32.81-33.91-56.56
						c7.13-18.49,20.17-31.57,39-38.7c14.58-5.52,29.79-3.57,44.65,4.47C568.84,395.3,575.81,413.09,570.48,434.41z"/>
				</g>
				<path id="F_1_" class="st7" d="M576.55,675.43c14.95,41.11,37.77,38.41,75.06,38.31c36.72-3.26,32.02-19.62,25.15-39.22
					c-27.75-79.17-0.39-186.36,23.2-247.25c19.36-49.96,35.77-42.33,43.63-39.99c21,6.25,53.04,9.49,83.15,9.4
					c14.22-0.04,55.57-3.06,66.23-7.16c50.8-19.56,60.94-14.81,69.03-118.22c0.61-5.47-1.34-12.61-7.05-15.64
					c-5.36-2.84-13.35,0.83-16.57,1.83c-51.59,15.91-111.55,22.89-168.16,21.89c-183.8-3.25-252.01-21.9-327.07-3.53
					c-9.78,2.39-14.99,26.91-20.8,65.13c-2.48,16.31,10.14,27.99,26.55,26.27c8.68-0.91,108.87-12.15,138.64-2.6
					c4.37,1.4,11.41,7.14,10.08,12.66C576.42,465.52,555.34,617.1,576.55,675.43z"/>
			</g>
		</g>
	</g>
	<g id="BRILHOS">
		<g>
			<path class="st3" d="M192.92,848.91h4.5c6.71,0,12.17-5.44,12.2-12.13l1.96-52.84c0.2-4.78-1.6-9.55-4.94-13.03
				c-3.34-3.49-8.03-5.49-12.86-5.49h-4.5c4.83,0,9.52,2,12.86,5.49c3.34,3.49,5.14,8.26,4.94,13.03l-1.96,52.84
				C205.08,843.47,199.62,848.91,192.92,848.91z"/>
			<path class="st3" d="M144.61,874.37v-96.36c0-5.27-2.66-9.77-7.35-11.48v-26c0-0.42,0.34-0.77,0.77-0.77h-4.78
				c-0.42,0-0.77,0.34-0.77,0.77v26c4.69,1.7,8.05,6.21,8.05,11.48v96.36c0,0.1,0.08,0.19,0.19,0.19h4.08
				C144.7,874.56,144.61,874.47,144.61,874.37z"/>
		</g>
		<path class="st3" d="M275.35,860.56v-81.34c0-4.83-3.03-8.97-7.29-10.62v-15.31h-5.54v15.31c4.26,1.64,7.29,5.78,7.29,10.62v81.34
			c0,5.9,4.8,10.7,10.7,10.7h5.54C280.15,871.25,275.35,866.46,275.35,860.56z"/>
		<rect x="354.88" y="767.54" class="st3" width="5.71" height="117.75"/>
		<path class="st3" d="M445.34,877.12V762.05h-7.16v115.07c0,1.6,1.3,2.9,2.9,2.9h7.16C446.64,880.02,445.34,878.72,445.34,877.12z"
			/>
		<g>
			<path class="st3" d="M557.12,825.63L576,763.78l2.62-8.5h-3.98l-1.84,6.04l-17.33,56.41c-1.52,4.95-5.19,8.71-9.82,10.44
				C547.44,828.82,554.32,827.88,557.12,825.63z"/>
			<path class="st3" d="M522.61,864.2l-1.75-5.8l-17.47-56.83l-12.6-41.43h-5.93l12.6,41.43l17.47,56.83l1.75,5.8
				c1.63,5.41,6.53,9.04,12.18,9.04h5.93C529.13,873.24,524.24,869.61,522.61,864.2z"/>
		</g>
		<path class="st3" d="M621.54,860.06v-79.61c0-5.05-2.99-9.42-7.29-11.43v-15.73h-5.7v15.73c4.3,2.01,7.29,6.38,7.29,11.43v79.61
			c0,6.17,5.02,11.19,11.19,11.19h5.7C626.56,871.25,621.54,866.23,621.54,860.06z"/>
		<g>
			<path class="st3" d="M748.94,822.69c1.14,0.34,3.09,0.53,3.09,0.53c4.16-0.6,7.92-2.29,11.48-6.27s5.26-9.32,4.66-14.63
				l-0.54-4.75l-0.9-8.33l-0.25-1.91c-0.82-6.26-6.19-10.98-12.51-10.98h-1.44c-0.59,0-1.16,0.05-1.73,0.13
				c5.54,0.77,10.04,5.17,10.78,10.85l0.25,1.91l0.9,8.33l0.54,4.75c0.6,5.31-1.1,10.64-4.66,14.63
				C756.03,819.83,752.64,821.81,748.94,822.69z"/>
			<path class="st3" d="M704.15,832.98v-23.53c4.3-2.01,7.29-6.38,7.29-11.43V762.9c0-0.36,0.3-0.66,0.66-0.66h-5.66
				c-0.36,0-0.66,0.3-0.66,0.66v35.12c0,5.06-2.99,9.42-7.29,11.43v23.53c4.3,2.01,7.29,6.38,7.29,11.44v35.78h5.66v-35.78
				C711.44,839.36,708.46,834.99,704.15,832.98z"/>
			<path class="st3" d="M754.81,846.64c-1.99-3.93-2.48-5.17-6.87-5.17c-2.08,0-2.21,0.05-3.65,0.31c1.95,1.11,3.58,2.76,4.65,4.86
				l13.98,27.63l3.03,5.94h5.87l-3.03-5.94L754.81,846.64z"/>
		</g>
		<g>
			<path class="st3" d="M856.43,767.99c4.14-0.79,8.22-6.25,8.22-6.25l6.74-14.69h-2.86l-5.27,10.24
				c-2.76,5.25-7.51,9.01-13.05,10.55C852.04,768.35,856.43,767.99,856.43,767.99z"/>
			<path class="st3" d="M836.34,812.02l-6.17-12.14l-19.24-37.59l-7.97-15.23h-6.4l7.97,15.23l19.24,37.59l6.17,12.14
				c1.23,2.41,1.88,5.12,1.88,7.83v44.95h6.4v-44.95C838.21,817.14,837.57,814.44,836.34,812.02z"/>
		</g>
		<g>
			<path class="st3" d="M861.28,428.79c30.65,0,50.08-3.72,64.27-6.44c3.97-0.76,7.47-1.42,10.55-1.87
				c-1.44-0.4-2.98-0.58-4.77-0.58c-4.38,0-10.04,1.08-17.2,2.45c-13.21,2.53-30.99,5.93-58.13,6.38
				C857.78,428.76,859.55,428.79,861.28,428.79z"/>
			<path class="st3" d="M894.54,614.57c14.77-7.39,38.8-12.36,51.64-13.83c-1.35-0.25-2.94-0.42-4.87-0.45l-0.28,0
				c-8.97,0-40.14,5.4-57.91,14.28c-14.05,7.03-27.07,11.43-37.48,12.75c1.54,0.27,3.28,0.42,5.24,0.42
				C862.05,627.75,877.55,623.07,894.54,614.57z"/>
			<path class="st3" d="M722.3,505.35c1.32,0.68,5.47,2.25,15.4,2.25c1.9,0,3.92-0.06,6.02-0.18c-6.11-0.43-8.96-1.53-10.01-2.07
				c-4.08-2.08-5.12-11.18-2.79-24.35c2.57-14.48,8.43-30.63,12.3-41.32c1.63-4.48,2.8-7.71,3.45-10.02
				c1.81-6.37,3.95-9.97,7.16-11.6c-2.94-0.59-5.42-1.04-6.41-1.06c-6.26,0.02-9.56,3.45-12.17,12.66
				c-0.65,2.31-1.83,5.54-3.45,10.02c-3.88,10.68-9.74,26.83-12.3,41.32C717.18,494.17,718.22,503.27,722.3,505.35z"/>
			<path class="st3" d="M891.47,700c-11.32-1.35-32.16-2.26-51.87-2.26c-1.8,0-3.71,0.01-5.7,0.03c17.92,0.15,35.92,1.01,46.15,2.23
				c1.94,0.23,12.22,1.39,23.77,1.39c1.96,0,3.78-0.04,5.49-0.1C900.34,701.01,893.07,700.19,891.47,700z"/>
			<path class="st3" d="M726.6,690.67c-8.53-22.64-10.83-61.86-4.98-86.3c2.01-8.42,33.31-29.83,50.12-41.34
				c12.87-8.81,25.03-17.13,32.11-23.58c0.86-0.77,4.54-3.28,7.5-5.3c19.93-13.58,30.19-21.12,27.18-30.88
				c-0.91-2.96-3.84-7.94-13.18-7.94c-1.86,0-4.05,0.18-6.6,0.54c5.6,1.36,7.63,5.02,8.37,7.4c3.01,9.76-7.25,17.3-27.18,30.88
				c-2.96,2.02-6.64,4.53-7.5,5.3c-7.08,6.45-19.24,14.77-32.11,23.58c-16.81,11.51-48.1,32.92-50.12,41.34
				c-5.85,24.45-3.55,63.66,4.98,86.3c4.7,6.85,12.4,13.89,20.55,13.89h0.04c1.76-0.01,3.68-0.17,5.87-0.5
				c0.39-0.06,0.78-0.1,1.17-0.15C736.33,702.02,730.46,696.29,726.6,690.67z"/>
		</g>
		<g>
			<path class="st3" d="M305.45,242.01c-2.09-0.01-4.17-0.01-6.21-0.02c-3.61-0.01-7.12-0.03-10.54-0.03
				c-0.99,0-1.94,0.01-2.92,0.01c1.85,0.01,3.71,0.01,5.61,0.02c3.78,0.01,7.65,0.03,11.61,0.03
				C303.81,242.02,304.64,242.01,305.45,242.01z"/>
			<path class="st3" d="M396.14,273.7c-19.24,7.57-70.9,16.05-111.99,20.51c-9.81,1.07-18.66,1.68-26.4,1.84
				c1.25,0.03,2.53,0.05,3.84,0.05c8.63,0,18.86-0.63,30.4-1.89c39.11-4.24,87.77-12.13,108.96-19.41c-0.14-1-0.34-1.73-0.55-2.19
				C399.79,272.62,398.45,272.79,396.14,273.7z"/>
			<path class="st3" d="M53.36,232.13c-12.21-0.23-15.65-1.64-16.58-2.28c-0.05-0.57-0.02-2.38,1.39-6.33
				c21.36-59.58,41.13-60.46,47.62-60.74c205.18-9.09,296.11-18.55,370.17-76.45c0.02-0.01,0.03-0.02,0.05-0.04
				c-0.29-0.39-0.61-0.71-0.98-0.9c-1.24-0.64-2.39-0.97-3.45-0.97c-0.91,0-2.41,1.09-3.46,1.91
				c-74.05,57.9-164.98,67.36-370.17,76.45c-6.5,0.29-26.26,1.16-47.62,60.74c-1.42,3.96-1.44,5.76-1.39,6.33
				c1.01,0.7,4.99,2.32,20.15,2.32C50.45,232.17,51.88,232.15,53.36,232.13z"/>
			<path class="st3" d="M48.58,653.33c-3.48-24.39,23.02-138.1,37.25-199.2c4.72-20.26,8.45-36.27,10.54-46.27
				c9.59-45.95,27.43-128,31.37-143.64c2.6-10.29-0.57-17.22-3.69-21.22c-6.1-7.83-17.42-11.8-33.64-11.8
				c-1.31,0-2.66,0.03-4.04,0.09c14.19,0.59,24.23,4.51,29.84,11.71c3.12,4,6.28,10.92,3.69,21.22
				c-3.94,15.64-21.79,97.69-31.37,143.64c-2.09,10-5.82,26.01-10.54,46.27c-14.24,61.09-40.74,174.81-37.25,199.2
				c5.98,41.88,34.6,50.46,75.74,50.46l0.97,0c0.96,0,1.87-0.02,2.77-0.03C81.29,703.18,54.36,693.8,48.58,653.33z"/>
			<path class="st3" d="M297.96,356.25c-12.44-1.77-24.19-3.45-33.01-4.03c-3.51-0.23-6.98-0.35-10.32-0.35
				c-1.08,0-2.1,0.06-3.16,0.08c1.86,0.06,3.74,0.14,5.63,0.27c8.82,0.58,20.57,2.25,33.01,4.03c19.54,2.79,41.7,5.94,59.27,5.94
				c1.35,0,2.62-0.02,3.83-0.06C336.36,361.72,316.04,358.83,297.96,356.25z"/>
		</g>
		<g>
			<path class="st3" d="M352.91,601.21c1.7,0,3.37-0.05,5.03-0.14c-2.49-0.09-4.87-0.21-7.05-0.32c-3.41-0.18-6.36-0.33-8.95-0.33
				c-1.49,0-2.97,0.06-4.43,0.23c0.64,0.03,1.28,0.06,1.96,0.1c3.63,0.19,7.75,0.4,12.19,0.46L352.91,601.21z"/>
			<path class="st3" d="M386.93,634.63l2.82-0.77c5.02-1.37,9.84-2.68,14.18-3.44c-1.12-0.4-2.62-0.68-4.73-0.68
				c-5.73,0-13.08,2-20.87,4.13l-2.82,0.77c-4.79,1.29-9.85,2.12-14.89,2.5c1.83,0.14,3.7,0.23,5.63,0.23
				C373.15,637.36,380.3,636.41,386.93,634.63z"/>
			<path class="st3" d="M298.89,557.21c1.95,0.12,3.9,0.19,5.84,0.19c35.94,0,62.17-22.05,67.28-37.97
				c3.63-11.29,1.88-22.65-4.92-31.98c-7.96-10.92-22.14-17.7-36.99-17.7c-1.86,0-3.76,0.12-5.66,0.34
				c12.69,1.5,24.31,7.86,31.24,17.35c6.8,9.32,8.55,20.68,4.92,31.98C355.74,534.52,331.94,555.09,298.89,557.21z"/>
			<path class="st3" d="M243.51,705.9c-17.5-0.02-29.97-4.95-38.11-15.05c-21.58-26.75-11.24-89.49-1.58-134.36
				c10.51-48.86,19.53-98.49,24.38-125.16c1.94-10.67,3.34-18.38,3.86-20.7c1.95-8.67,15.59-15.64,32.17-16.97
				c-1.85-0.16-3.75-0.25-5.7-0.25c-19.07,0-35.72,7.56-37.89,17.22c-0.52,2.33-1.92,10.04-3.86,20.7
				c-4.85,26.66-13.86,76.29-24.38,125.16c-9.65,44.86-19.99,107.61,1.58,134.36c8.15,10.1,20.61,15.02,38.11,15.05
				c2.25,0,4.43,0.01,6.55,0.02c2.33,0.01,4.58,0.02,6.74,0.02c1.1,0,2.67,0,4.46-0.02C247.79,705.92,245.68,705.91,243.51,705.9z"
				/>
			<path class="st3" d="M293.02,433.36l-3.55,8.77l22.73-13.32c21.64-12.68,41.64-19.71,59.55-20.99c-1.82-0.14-3.66-0.23-5.55-0.23
				c-19.37,0-41.38,7.14-65.41,21.22L293.02,433.36z"/>
			<path class="st3" d="M325.37,700.55l-0.48-0.39c-12.79-10.46-34.2-27.97-33.36-87.22c0.04-2.9-1.05-5.62-3.07-7.67
				c-2.06-2.09-4.96-3.29-7.96-3.29c-2.09,0-4.03,0.58-5.69,1.57c0.81,0.48,1.57,1.05,2.23,1.72c2.02,2.05,3.11,4.77,3.07,7.67
				c-0.83,59.25,20.57,76.76,33.36,87.22l0.48,0.39c3.76,3.08,13.9,4.64,30.12,4.64c2.15,0,4.24-0.02,6.22-0.05
				c0.12,0,0.23,0,0.35-0.01C337.24,704.84,328.74,703.31,325.37,700.55z"/>
		</g>
		<path class="st3" d="M478.75,699.13c-13.12-34.99-3.21-145.19,2.97-183.34c2.36-14.59,7.5-19.59,21.96-21.39
			c2.47-0.31,5.75-0.53,9.4-0.64c-1.88-0.05-3.81-0.09-5.81-0.09c-5.84,0-11.31,0.26-15,0.72c-14.47,1.81-19.6,6.8-21.96,21.39
			c-6.18,38.15-16.09,148.35-2.97,183.34c1.93,2,12.82,6.1,34.34,6.1c1.99,0,3.88-0.05,5.74-0.11
			C489.66,704.47,480.5,700.94,478.75,699.13z"/>
		<path class="st3" d="M514.1,467.4c-11.22-2.56-20.58-9.53-25.7-19.14c-4.36-8.19-5.01-17.23-1.84-25.45
			c6.21-16.11,17.59-27.4,33.82-33.55c2.7-1.02,5.47-1.7,8.27-2.11c-1.98-0.29-3.94-0.44-5.88-0.44c-4.69,0-9.33,0.86-13.8,2.55
			c-16.23,6.15-27.61,17.44-33.82,33.55c-3.17,8.22-2.52,17.26,1.84,25.45c5.11,9.61,14.48,16.58,25.7,19.14
			c4.16,0.95,8.35,1.43,12.45,1.43c1.89,0,3.74-0.13,5.56-0.33C518.5,468.27,516.29,467.91,514.1,467.4z"/>
		<g>
			<path class="st3" d="M792.27,288.42c57.3,0,112.69-7.74,160.17-22.38c0.04-0.01,0.09-0.03,0.13-0.04
				c-0.39-1.09-0.97-1.99-1.71-2.38c0,0-0.19-0.06-0.66-0.06c-2.08,0-5.08,1.06-7.07,1.77c-0.81,0.29-1.53,0.54-2.11,0.72
				c-45.86,14.14-99.11,21.83-154.33,22.33C788.55,288.39,790.41,288.42,792.27,288.42z"/>
			<path class="st3" d="M757.57,378.68l-0.95-0.29c-2.45-0.76-6.15-1.92-10.64-1.92c-1.91,0-3.78,0.22-5.61,0.62
				c1.91,0.39,3.55,0.9,4.83,1.3l0.95,0.29c18.73,5.57,49.16,9.03,79.43,9.03l1.14,0c1.08,0,2.3-0.02,3.62-0.06
				C802.33,387.18,774.92,383.84,757.57,378.68z"/>
			<path class="st3" d="M445.43,353.6c-2.51-2.92-3.48-6.83-2.8-11.29c2-13.15,8.06-52.97,14.4-57.85
				c20.24-4.92,40.86-7.3,66.15-7.6c-1.95-0.02-3.89-0.04-5.81-0.04c-27.9,0-50.04,2.36-71.76,7.64c-6.34,4.89-12.4,44.7-14.4,57.85
				c-0.68,4.47,0.29,8.37,2.8,11.29c2.68,3.12,6.84,4.83,11.71,4.83c0.73,0,1.49-0.04,2.25-0.12l1.33-0.14
				c1.06-0.11,2.11-0.22,3.17-0.33C449.62,357.1,447.2,355.66,445.43,353.6z"/>
			<path class="st3" d="M596.39,672.36c-20.37-56,0.23-205.04,21.36-292.98c2.64-10.99-7.63-20.59-16.06-23.3
				c-8.91-2.86-23.06-4.25-43.24-4.25c-1.88,0-3.83,0.02-5.81,0.04c17.21,0.24,29.57,1.62,37.63,4.2c8.43,2.7,18.7,12.3,16.06,23.3
				c-21.13,87.94-41.73,236.97-21.36,292.98c11.29,31.03,25.88,32.48,52.84,32.48c2.03,0,4.12-0.01,6.25-0.03
				C620.37,704.52,606.93,701.35,596.39,672.36z"/>
		</g>
	</g>
</g>
<g id="FRITZ_2" class="st8">
	<path id="CONTORNO_1_" class="st9" d="M879.97,758.04l-0.42,0c-0.99,0-2.25,0.07-3.73,0.21c4.05-3.91,8.78-8.42,17.42-15.66
		c13.39-11.22,12.37-28.18,11.76-38.31c-0.06-1.09-0.13-2.11-0.16-3.06c-0.4-10.4-6.58-21.8-15.04-27.73
		c-1.13-0.79-2.28-1.48-3.46-2.07c2.65-2.32,5.04-5.15,7.11-8.78c5.15-9.02,7.62-21.26,9.75-48.46c0.86-8.61-3.34-16.9-10.51-20.71
		c-2.6-1.38-5.49-2.08-8.59-2.08c-4.08,0-7.56,1.23-9.43,1.9c-0.15,0.05-0.29,0.1-0.34,0.12c-21.51,6.64-47.81,10.29-74.04,10.29
		c-1.68,0-3.36-0.01-5.03-0.04c-34.21-0.6-60.45-2.31-81.54-3.68c-17.35-1.13-31.06-2.02-43.83-2.02c-13.82,0-25.18,1.09-36.23,3.49
		c17.74-14.88,21.48-41.13,24.17-75.46c0.87-8.67-3.37-16.99-10.6-20.76c-3.17-1.65-6.5-2.49-9.96-2.49
		c-6.59,0.02-11.11,3.55-12.59,4.71c-32.58,25.47-75.54,29.77-173.05,34.09c-16.99,0.75-29.54,14.04-39.49,41.8
		c-2.72,7.58-2.23,14.08,1.45,19.32c6.1,8.66,17.55,8.7,24.45,8.7c0.03,0,0.06,0,0.09,0c4.21,0,9.11-0.19,15.08-0.44
		c0.48-0.02,0.94-0.03,1.39-0.03c-3.39,14.78-10.61,48.2-14.33,66.06c-0.99,4.75-2.91,12.97-5.13,22.5
		c-13.56,58.21-20.57,92.2-18.72,105.12c4.6,32.22,29.34,38.62,45.27,39.9c-0.01,0.25-0.04,0.5-0.04,0.75v14.57
		c0,4,1.51,7.66,3.98,10.44v41.24c0,9.84,8,17.84,17.84,17.84h23.74c5.78,0,11.35-1.2,16.58-3.57c3.83-1.74,7.41-4.08,10.69-6.95
		c4.22,5.41,10.79,8.89,18.16,8.89h22.7c3.23,4.21,8.29,6.94,13.99,6.94h30.07c3.56,0,6.87-1.05,9.67-2.85
		c0.99,0.16,2,0.24,3.03,0.24h9.84c7.29,0,13.5-4.64,15.89-11.11c4.43,4.84,10.76,7.75,17.7,7.75h6.79c9.17,0,17.12-5.89,19.8-14.65
		l0.33-1.1c3.41,8.64,11.83,14.77,21.66,14.77h25.66c2.74,2.74,6.51,4.43,10.68,4.43h15.75c2.73,0,5.3-0.73,7.51-2
		c2.25,1.29,4.83,2,7.54,2h17.63c5.28,0,10.08-2.68,12.86-7.17c0.15-0.24,0.29-0.48,0.42-0.73c0.97,0.17,1.97,0.28,2.99,0.28h7.84
		c9.61,0,17.43-7.82,17.43-17.43v-24.63c0.43-1.3,1.24-3.4,1.61-4.21l0.04-0.08l6.79-14.33l3.94-7.19l0.26-0.62
		c1.74-4.11,1.92-8.45,0.62-12.41c8.35-0.23,14.73-1.57,19.44-4.1c15.16-8.15,18.23-26.89,20.26-39.29l0.25-1.53
		c1.83-11.05,2.72-23.53-4.59-32.29C895.99,762.64,890.18,758.2,879.97,758.04z"/>
	<path id="CONTORNO_JACARE_1_" class="st9" d="M845.57,551.34c-3.1-4.51-7.87-7.1-13.1-7.1c-2.17,0-4.96,0.46-8,2.1l-18.45-6.98
		c-1.71-8.32-7.23-17.81-20.66-22.42c-2.93-1.01-5.92-1.52-8.9-1.52c-3.21,0-6.33,0.57-9.32,1.69l-3.37-3.95
		c-2.76-3.37-6.95-5.37-11.32-5.37c-3.53,0-6.89,1.26-9.51,3.52c-2.7-2.43-6.25-3.8-9.89-3.8c-3.98,0-7.82,1.63-10.59,4.47
		l-0.34,0.34c-2.69-2.21-6.09-3.42-9.57-3.42c-3.77,0-7.38,1.4-10.16,3.93l-0.34,0.31c-2-0.99-4.23-1.52-6.49-1.52
		c-3.25,0-6.45,1.11-9.01,3.12l-5.29,4.15l-0.31,0.19c-1.57,0.98-3.33,2.12-5.21,3.33c-8.74,5.64-31.62-32.4-34.55-10.58
		c-1.39,10.35-16.28,82.56-9.49,90.34c19.73,22.6,95.02,10.64,135.43,10.72c1.74,0,3.21,0.01,4.37,0.02l0.23,0
		c5.71,0,10.99-2.6,14.47-7.13c1.01-1.31,62.4,10.47,63.01,8.99l41.74-14.28c13.28-18.53-49.61-2.65-45.56-13.19
		C849.72,576.09,852.03,560.74,845.57,551.34z"/>
	<g id="ASTERISCOS_1_" class="st10">
		<g>
			<path class="st0" d="M460.42,898.83c-0.58,0-1.18-0.05-1.79-0.15h-1.28l-0.6-0.31c-1.32-0.3-2.51-0.82-3.55-1.56
				c-0.4-0.02-0.81-0.07-1.2-0.15l-0.2-0.04l-0.2-0.05c-1.78-0.42-3.38-1.26-4.76-2.49c-0.93-0.8-1.76-1.75-2.46-2.83l-0.29-0.44
				l-0.23-0.48c-0.51-1.05-0.75-2.03-0.87-2.7c-0.73-2.48-0.55-5.11,0.4-7.37c-1.02-2.41-1.11-5.04-0.23-7.54
				c0.44-1.28,1.13-2.46,2.04-3.51c0.04-0.05,0.23-0.3,0.28-0.36l3.04-3.54l3.47-1.5c0.87-0.94,1.92-1.72,3.1-2.29l0.44-0.21
				l0.46-0.16c1.15-0.39,2.36-0.59,3.58-0.59c0.14,0,0.29,0,0.44,0.01c0.11,0,0.22-0.01,0.33-0.01c1.21,0,2.43,0.19,3.61,0.56
				l0.15,0.05l0.15,0.05c2.04,0.73,3.74,2.05,4.97,3.78c1.32,0.38,2.57,1.04,3.67,1.95c1.09,0.73,2.02,1.65,2.77,2.72l0.13,0.19
				l0.12,0.2c0.79,1.28,1.35,2.66,1.65,4.11c0.52,2.35,0.25,4.7-0.74,6.77c0.9,2.01,1.14,4.27,0.62,6.41l-0.05,0.21
				c-0.48,1.79-1.22,3.33-2.26,4.68l-0.09,0.12l-0.1,0.12c-1.02,1.24-2.19,2.25-3.49,3.02c-0.38,0.24-0.77,0.45-1.18,0.63v2.22
				l-6.8,0.03c-0.65,0.19-1.32,0.32-2.01,0.38C461.12,898.81,460.77,898.83,460.42,898.83z"/>
			<path class="st0" d="M851.77,898.83c-0.58,0-1.18-0.05-1.79-0.15h-1.27l-0.6-0.31c-1.32-0.3-2.51-0.82-3.56-1.57
				c-0.4-0.02-0.81-0.07-1.2-0.15l-0.2-0.04l-0.2-0.05c-1.78-0.42-3.38-1.26-4.76-2.49c-0.93-0.8-1.76-1.75-2.46-2.83l-0.28-0.44
				l-0.23-0.47c-0.52-1.06-0.75-2.04-0.88-2.71c-0.73-2.48-0.55-5.11,0.4-7.37c-1.02-2.41-1.11-5.04-0.23-7.54
				c0.44-1.28,1.13-2.46,2.04-3.51c0.04-0.05,0.23-0.3,0.28-0.36l0-6.25c0,0,8.42-0.5,9.61-1.07l0.43-0.21c0,0,2.81-0.75,4.04-0.75
				c0.14,0,0.29,0,0.44,0.01c0.11,0,0.22-0.01,0.33-0.01c1.21,0,2.43,0.19,3.61,0.56l0.15,0.05l0.15,0.05
				c2.04,0.73,3.74,2.05,4.97,3.78c1.32,0.38,2.57,1.04,3.67,1.95c1.09,0.73,2.02,1.65,2.77,2.72l0.13,0.19l0.12,0.19
				c0.8,1.28,1.35,2.67,1.66,4.11c0.52,2.35,0.25,4.7-0.74,6.77c0.9,2.01,1.14,4.26,0.62,6.41l-0.06,0.22
				c-0.49,1.79-1.22,3.32-2.26,4.68l-0.09,0.12l-0.1,0.12c-1.02,1.24-2.19,2.25-3.49,3.02c-0.38,0.24-0.77,0.45-1.17,0.63l-1.9,1.1
				c-0.26,0.15-0.54,0.26-0.83,0.31l-4.07,0.83c-0.65,0.19-1.32,0.32-2.01,0.38C852.47,898.81,852.12,898.83,851.77,898.83z"/>
		</g>
		<g>
			<g class="st1">
				<path class="st2" d="M455.02,873.01c0.31,0,0.64,0.03,0.95,0.07c0.27,0,0.75-0.31,0.88-0.56c0.03-0.17,0.1-0.38,0.17-0.56
					c0.03-0.1,0.03-0.17,0.07-0.24c0.07-0.24,0.17-0.45,0.31-0.66c0.1-0.17,0.17-0.31,0.24-0.49c0.17-0.59,0.51-1.01,1.02-1.25
					c0.41-0.14,0.81-0.17,1.22-0.14h0.24c0.47-0.03,0.95,0.03,1.39,0.17c0.68,0.24,1.12,0.77,1.32,1.5c0.1,0.31,0.2,0.63,0.34,0.94
					c0.14,0.31,0.24,0.66,0.34,1.01c0.1,0.38,0.51,0.7,0.81,0.7c0.2-0.04,0.41-0.07,0.58-0.1c0.07-0.03,0.14-0.03,0.24-0.03
					c0.24-0.03,0.44-0.07,0.68-0.07c0.17-0.03,0.37-0.03,0.54-0.03c0.51-0.07,0.98,0.1,1.39,0.49l0.41,0.31
					c0.31,0.17,0.54,0.38,0.71,0.63c0.24,0.38,0.44,0.84,0.54,1.36c0.17,0.7-0.03,1.29-0.61,1.81c-0.14,0.17-0.27,0.35-0.41,0.56
					c-0.1,0.24-0.27,0.45-0.44,0.63c-0.2,0.14-0.41,0.24-0.61,0.35c-0.24,0.1-0.47,0.24-0.64,0.42c-0.17,0.17-0.37,0.49-0.41,0.77
					c-0.1,0.45,0.07,0.94,0.37,1.22c0.37,0.38,0.78,0.77,1.19,1.15c0.1,0.1,0.2,0.17,0.31,0.28c0.31,0.28,0.58,0.59,0.81,0.91
					c0.27,0.31,0.47,0.73,0.37,1.15c-0.17,0.63-0.41,1.18-0.78,1.67c-0.37,0.45-0.81,0.87-1.39,1.18c-0.34,0.24-0.71,0.31-1.12,0.28
					c-0.2-0.03-0.41-0.07-0.58-0.1c-0.24-0.03-0.44-0.07-0.64-0.1c-0.54-0.04-1.02,0.17-1.42,0.63c-0.03,0.03-0.1,0.07-0.17,0.07
					c-0.1,0.04-0.17,0.07-0.2,0.1c-0.31,0.35-0.64,0.59-1.02,0.73c-0.03,0.03-0.07,0.03-0.1,0.03c0,0.03,0,0.03-0.03,0.03
					c-0.37,0.24-0.78,0.38-1.22,0.42c-0.27,0.03-0.58,0-0.88-0.07c-0.14-0.03-0.27-0.07-0.44-0.07c-0.07-0.03-0.14-0.03-0.24-0.03
					c-0.51-0.04-0.98-0.14-1.29-0.45c-0.17-0.21-0.34-0.45-0.47-0.7c-0.14-0.28-0.31-0.52-0.47-0.73c-0.3-0.28-0.78-0.28-1.22-0.17
					h-0.34c-0.17,0-0.3,0-0.47,0.03c-0.51,0.17-0.95,0.24-1.32,0.17c-0.44-0.1-0.85-0.31-1.22-0.66c-0.34-0.28-0.64-0.63-0.92-1.04
					c-0.1-0.21-0.14-0.45-0.17-0.7c-0.03-0.17-0.07-0.35-0.14-0.52c-0.24-0.66-0.17-1.53,0.27-1.95c0.17-0.17,0.37-0.31,0.61-0.45
					c0.2-0.1,0.41-0.24,0.58-0.38c0.1-0.1,0.24-0.17,0.34-0.28c0.24-0.24,0.51-0.45,0.75-0.66c0.44-0.45,0.44-1.46,0.03-1.99
					c-0.14-0.1-0.27-0.24-0.41-0.35c-0.1-0.07-0.17-0.14-0.24-0.17c-0.17-0.14-0.31-0.28-0.44-0.45c-0.1-0.17-0.24-0.35-0.41-0.49
					c-0.07-0.03-0.14-0.1-0.2-0.14c-0.17-0.1-0.31-0.24-0.41-0.38c-0.44-0.56-0.75-1.22-0.47-1.95c0.1-0.31,0.31-0.59,0.54-0.84
					c0.1-0.1,0.17-0.24,0.27-0.35c0.27-0.38,0.61-0.73,0.98-1.01c0.31-0.21,0.64-0.38,0.98-0.49c0.03,0,0.03,0,0.03-0.03
					C454.24,872.98,454.64,873.01,455.02,873.01z"/>
			</g>
			<g class="st1">
				<path class="st2" d="M846.37,873.01c0.31,0,0.64,0.03,0.95,0.07c0.27,0,0.75-0.31,0.88-0.56c0.03-0.17,0.1-0.38,0.17-0.56
					c0.03-0.1,0.03-0.17,0.07-0.24c0.07-0.24,0.17-0.45,0.3-0.66c0.1-0.17,0.17-0.31,0.24-0.49c0.17-0.59,0.51-1.01,1.02-1.25
					c0.41-0.14,0.81-0.17,1.22-0.14h0.24c0.47-0.03,0.95,0.03,1.39,0.17c0.68,0.24,1.12,0.77,1.32,1.5c0.1,0.31,0.2,0.63,0.34,0.94
					c0.14,0.31,0.24,0.66,0.34,1.01c0.1,0.38,0.51,0.7,0.81,0.7c0.2-0.04,0.41-0.07,0.58-0.1c0.07-0.03,0.14-0.03,0.24-0.03
					c0.24-0.03,0.44-0.07,0.68-0.07c0.17-0.03,0.37-0.03,0.54-0.03c0.51-0.07,0.98,0.1,1.39,0.49l0.41,0.31
					c0.31,0.17,0.54,0.38,0.71,0.63c0.24,0.38,0.44,0.84,0.54,1.36c0.17,0.7-0.03,1.29-0.61,1.81c-0.14,0.17-0.27,0.35-0.41,0.56
					c-0.1,0.24-0.27,0.45-0.44,0.63c-0.2,0.14-0.41,0.24-0.61,0.35c-0.24,0.1-0.47,0.24-0.64,0.42c-0.17,0.17-0.37,0.49-0.41,0.77
					c-0.1,0.45,0.07,0.94,0.37,1.22c0.37,0.38,0.78,0.77,1.19,1.15c0.1,0.1,0.2,0.17,0.31,0.28c0.31,0.28,0.58,0.59,0.81,0.91
					c0.27,0.31,0.47,0.73,0.37,1.15c-0.17,0.63-0.41,1.18-0.78,1.67c-0.37,0.45-0.81,0.87-1.39,1.18c-0.34,0.24-0.71,0.31-1.12,0.28
					c-0.2-0.03-0.41-0.07-0.58-0.1c-0.24-0.03-0.44-0.07-0.64-0.1c-0.54-0.04-1.02,0.17-1.42,0.63c-0.03,0.03-0.1,0.07-0.17,0.07
					c-0.1,0.04-0.17,0.07-0.2,0.1c-0.31,0.35-0.64,0.59-1.02,0.73c-0.03,0.03-0.07,0.03-0.1,0.03c0,0.03,0,0.03-0.03,0.03
					c-0.37,0.24-0.78,0.38-1.22,0.42c-0.27,0.03-0.58,0-0.88-0.07c-0.14-0.03-0.27-0.07-0.44-0.07c-0.07-0.03-0.14-0.03-0.24-0.03
					c-0.51-0.04-0.98-0.14-1.29-0.45c-0.17-0.21-0.34-0.45-0.47-0.7c-0.14-0.28-0.31-0.52-0.47-0.73c-0.3-0.28-0.78-0.28-1.22-0.17
					h-0.34c-0.17,0-0.31,0-0.47,0.03c-0.51,0.17-0.95,0.24-1.32,0.17c-0.44-0.1-0.85-0.31-1.22-0.66c-0.34-0.28-0.64-0.63-0.92-1.04
					c-0.1-0.21-0.14-0.45-0.17-0.7c-0.03-0.17-0.07-0.35-0.14-0.52c-0.24-0.66-0.17-1.53,0.27-1.95c0.17-0.17,0.37-0.31,0.61-0.45
					c0.2-0.1,0.41-0.24,0.58-0.38c0.1-0.1,0.24-0.17,0.34-0.28c0.24-0.24,0.51-0.45,0.75-0.66c0.44-0.45,0.44-1.46,0.03-1.99
					c-0.14-0.1-0.27-0.24-0.41-0.35c-0.1-0.07-0.17-0.14-0.24-0.17c-0.17-0.14-0.31-0.28-0.44-0.45c-0.1-0.17-0.24-0.35-0.41-0.49
					c-0.07-0.03-0.14-0.1-0.2-0.14c-0.17-0.1-0.3-0.24-0.41-0.38c-0.44-0.56-0.75-1.22-0.47-1.95c0.1-0.31,0.31-0.59,0.54-0.84
					c0.1-0.1,0.17-0.24,0.27-0.35c0.27-0.38,0.61-0.73,0.98-1.01c0.3-0.21,0.64-0.38,0.98-0.49c0.03,0,0.03,0,0.03-0.03
					C845.59,872.98,846,873.01,846.37,873.01z"/>
			</g>
		</g>
	</g>
	<g class="st10">
		<g class="st1">
			<g>
				<path class="st3" d="M848.45,874.84l0.1,0.01h0.1c1.01,0,2.03-0.75,2.43-1.47l0.14-0.25l0.05-0.28
					c0.01-0.08,0.05-0.17,0.08-0.25l0.04-0.1c0.02-0.06,0.09-0.32,0.09-0.32c0.01-0.03,0.03-0.08,0.09-0.18
					c0.19-0.32,0.3-0.54,0.4-0.8l0.03-0.08l0.02-0.08c0.01-0.04,0.02-0.06,0.03-0.08c-0.12-0.02-0.24-0.04-0.35-0.04l-0.18,0.01
					h-0.38c0,0-0.17-0.01-0.21-0.01c-0.07,0-0.14,0.01-0.21,0.02c-0.01,0.02-0.02,0.05-0.04,0.1l-0.02,0.08l-0.03,0.08
					c-0.1,0.26-0.21,0.48-0.4,0.8c-0.06,0.1-0.08,0.14-0.09,0.18c0,0-0.07,0.26-0.09,0.32l-0.04,0.1c-0.03,0.08-0.06,0.17-0.08,0.25
					l-0.05,0.28l-0.14,0.25c-0.34,0.61-1.11,1.23-1.95,1.41C848.02,874.8,848.24,874.82,848.45,874.84z"/>
				<path class="st3" d="M846.08,886.16c-0.15-0.12-0.3-0.28-0.44-0.47c0-0.03-0.02-0.18-0.02-0.18l-0.01-0.05
					c-0.04-0.21-0.1-0.51-0.23-0.83c-0.01-0.03-0.01-0.08-0.01-0.13c0.03-0.02,0.07-0.04,0.11-0.07c0.29-0.15,0.58-0.35,0.84-0.56
					l0.09-0.08c0.16-0.12,0.28-0.22,0.39-0.33c0.12-0.12,0.26-0.24,0.39-0.34l0.31-0.27l0.05-0.05c1.04-1.07,1.12-3.09,0.16-4.31
					l-0.14-0.18l-0.18-0.14l-0.1-0.09c-0.1-0.09-0.2-0.18-0.31-0.26c0,0-0.19-0.15-0.25-0.18c-0.02-0.02-0.05-0.04-0.07-0.07
					c-0.21-0.32-0.45-0.6-0.73-0.83l-0.15-0.12l-0.07-0.03c-0.04-0.03-0.08-0.06-0.12-0.08c-0.12-0.16-0.17-0.25-0.19-0.3
					c0.02-0.04,0.06-0.09,0.13-0.17c0.11-0.11,0.22-0.25,0.32-0.4c0,0,0.05-0.05,0.05-0.05l0.08-0.11c0.16-0.23,0.37-0.44,0.6-0.61
					c0.02-0.01,0.05-0.03,0.07-0.04c-0.1-0.01-0.2-0.02-0.3-0.02c-0.3,0-0.61-0.02-0.9-0.05c-0.08,0.04-0.15,0.08-0.2,0.12
					c-0.23,0.17-0.43,0.38-0.6,0.61l-0.08,0.11c0,0-0.05,0.05-0.05,0.05c-0.1,0.14-0.21,0.28-0.32,0.4
					c-0.07,0.08-0.11,0.13-0.13,0.17c0.02,0.05,0.07,0.14,0.19,0.3c0.04,0.03,0.08,0.05,0.12,0.08l0.07,0.03l0.15,0.12
					c0.28,0.23,0.52,0.51,0.73,0.83c0.02,0.02,0.04,0.05,0.07,0.07c0.05,0.04,0.25,0.18,0.25,0.18c0.1,0.08,0.2,0.17,0.3,0.26
					l0.1,0.09l0.18,0.14l0.14,0.18c0.95,1.23,0.88,3.24-0.16,4.31l-0.05,0.05l-0.31,0.27c-0.13,0.11-0.26,0.22-0.39,0.34
					c-0.11,0.11-0.23,0.22-0.39,0.33l-0.09,0.08c-0.26,0.22-0.55,0.41-0.84,0.56c-0.04,0.03-0.08,0.05-0.11,0.07
					c0,0.05,0,0.11,0.01,0.13c0.13,0.33,0.18,0.62,0.23,0.83l0.01,0.05c0,0,0.02,0.15,0.02,0.18c0.14,0.19,0.29,0.35,0.44,0.47
					l0.09,0.08c0.11,0.1,0.21,0.17,0.34,0.21c0.05,0,0.18-0.02,0.42-0.1l0.11-0.04l0.11-0.02c0.13-0.03,0.24-0.04,0.36-0.05
					L846.08,886.16z"/>
				<path class="st3" d="M856.99,875.27h0.15c0,0,0.62-0.11,0.78-0.14l0.05-0.01l-0.09-0.07l-0.03-0.03l-0.03,0.01c0,0-0.3,0-0.31,0
					l-0.18,0.04h-0.18c-0.11,0-0.21,0.02-0.32,0.04l-0.23,0.03c-0.05,0.01-0.13,0.03-0.23,0.04
					C856.57,875.23,856.78,875.27,856.99,875.27z"/>
				<path class="st3" d="M857.83,886.45c-0.01,0-0.02,0-0.03,0l-0.09-0.02c0,0-0.25-0.01-0.32-0.01c-0.23,0-0.45,0.03-0.67,0.07
					c0.11,0.02,0.22,0.04,0.35,0.06c0,0,0.34,0.06,0.48,0.09l0.12-0.06C857.72,886.53,857.77,886.49,857.83,886.45z"/>
				<path class="st3" d="M857.69,886.65c0,0-0.1-0.02-0.1-0.02C857.62,886.64,857.65,886.65,857.69,886.65z"/>
				<path class="st3" d="M850.91,887.04l-0.08-0.1l-0.1-0.09c-0.5-0.46-1.16-0.7-1.91-0.7c-0.22,0-0.45,0.02-0.69,0.06h-0.03
					c0.49,0.1,0.94,0.31,1.3,0.64l0.1,0.09l0.08,0.1c0.27,0.33,0.49,0.67,0.67,1.02c0.03,0.06,0.08,0.12,0.12,0.19
					c0.04,0.01,0.09,0.01,0.15,0.02c0.12,0,0.28,0.01,0.47,0.05c0.22,0.02,0.39,0.06,0.5,0.09l0-0.42l0.05,0
					C851.37,887.66,851.16,887.35,850.91,887.04z"/>
			</g>
			<g>
				<path class="st3" d="M454.73,886.16c-0.15-0.13-0.3-0.29-0.44-0.48c0-0.03-0.01-0.08-0.01-0.14l-0.02-0.09
					c-0.04-0.21-0.1-0.51-0.22-0.83c-0.01-0.03-0.01-0.08-0.01-0.14c0.03-0.02,0.06-0.04,0.11-0.07c0.29-0.15,0.58-0.35,0.84-0.56
					l0.09-0.08c0.16-0.12,0.28-0.22,0.39-0.33c0.12-0.12,0.26-0.23,0.39-0.34l0.31-0.27l0.05-0.05c1.04-1.07,1.12-3.09,0.16-4.31
					l-0.14-0.18l-0.18-0.14l-0.1-0.09c-0.1-0.09-0.2-0.18-0.3-0.26c0,0-0.2-0.15-0.25-0.19c-0.02-0.02-0.04-0.04-0.07-0.07
					c-0.2-0.32-0.45-0.6-0.73-0.83l-0.15-0.12l-0.07-0.03c-0.04-0.03-0.08-0.06-0.12-0.08c-0.12-0.15-0.17-0.25-0.19-0.3
					c0.02-0.04,0.06-0.09,0.13-0.17c0.11-0.12,0.22-0.25,0.32-0.4l0.05-0.05l0.08-0.12c0.16-0.23,0.37-0.44,0.6-0.61
					c0.02-0.01,0.05-0.03,0.07-0.04c-0.1-0.01-0.2-0.02-0.3-0.02c-0.3,0-0.61-0.02-0.91-0.05c-0.08,0.04-0.15,0.08-0.2,0.11
					c-0.23,0.17-0.43,0.38-0.6,0.61l-0.08,0.12l-0.05,0.05c-0.1,0.14-0.2,0.28-0.32,0.4c-0.07,0.08-0.11,0.13-0.13,0.17
					c0.02,0.05,0.07,0.14,0.19,0.3c0.04,0.03,0.08,0.05,0.12,0.08l0.07,0.03l0.15,0.12c0.28,0.23,0.52,0.51,0.73,0.83
					c0.02,0.02,0.04,0.05,0.07,0.07c0.05,0.04,0.25,0.19,0.25,0.19c0.1,0.08,0.2,0.17,0.3,0.26l0.1,0.09l0.18,0.14l0.14,0.18
					c0.95,1.23,0.88,3.24-0.16,4.31l-0.05,0.05l-0.31,0.27c-0.13,0.11-0.27,0.22-0.39,0.34c-0.11,0.11-0.24,0.22-0.39,0.33
					l-0.09,0.08c-0.26,0.22-0.55,0.41-0.84,0.56c-0.04,0.03-0.08,0.05-0.11,0.07c0,0.05,0,0.11,0.01,0.14
					c0.13,0.32,0.18,0.62,0.22,0.83l0.02,0.09c0.01,0.05,0.01,0.11,0.01,0.14c0.14,0.19,0.29,0.35,0.44,0.48l0.09,0.07
					c0.11,0.1,0.21,0.17,0.34,0.21c0.05,0,0.18-0.02,0.42-0.1l0.11-0.04l0.11-0.02c0.13-0.03,0.24-0.04,0.35-0.05L454.73,886.16z"/>
				<path class="st3" d="M457.1,874.84l0.1,0.01h0.1c1.01,0,2.03-0.75,2.43-1.47l0.13-0.24l0.05-0.27c0.02-0.08,0.05-0.17,0.08-0.25
					l0.04-0.1c0.02-0.07,0.09-0.31,0.09-0.31c0.01-0.04,0.03-0.08,0.09-0.18c0.19-0.32,0.3-0.55,0.4-0.81l0.03-0.08l0.02-0.08
					c0.01-0.04,0.02-0.06,0.03-0.08c-0.12-0.02-0.24-0.04-0.35-0.04l-0.18,0.01h-0.38c0,0-0.17-0.01-0.21-0.01
					c-0.07,0-0.14,0.01-0.21,0.02c-0.01,0.02-0.02,0.05-0.04,0.1l-0.02,0.08l-0.03,0.08c-0.1,0.26-0.21,0.48-0.4,0.81
					c-0.06,0.09-0.08,0.14-0.09,0.18c0,0-0.07,0.25-0.09,0.31l-0.04,0.1c-0.03,0.08-0.07,0.17-0.08,0.25l-0.05,0.27l-0.13,0.24
					c-0.34,0.61-1.11,1.23-1.95,1.41C456.67,874.8,456.89,874.82,457.1,874.84z"/>
				<path class="st3" d="M465.64,875.27h0.15l0.15-0.03c0.27-0.05,0.46-0.08,0.63-0.11l0.05-0.01l-0.09-0.07l-0.03-0.03l-0.04,0.01
					c0,0-0.3,0-0.31,0l-0.18,0.04h-0.18c-0.11,0-0.21,0.02-0.33,0.04l-0.23,0.03c-0.07,0.01-0.15,0.03-0.23,0.04
					C465.21,875.23,465.42,875.27,465.64,875.27z"/>
				<path class="st3" d="M459.55,887.04l-0.08-0.1l-0.1-0.09c-0.5-0.46-1.16-0.7-1.91-0.7c-0.22,0-0.45,0.02-0.69,0.06h-0.03
					c0.49,0.1,0.94,0.31,1.3,0.64l0.1,0.09l0.08,0.1c0.27,0.33,0.49,0.67,0.67,1.02c0.04,0.06,0.08,0.12,0.12,0.19
					c0.04,0.01,0.09,0.01,0.15,0.02c0.12,0,0.28,0.01,0.47,0.05c0.22,0.02,0.39,0.06,0.5,0.09l0-0.42l0.05,0
					C460.01,887.66,459.81,887.35,459.55,887.04z"/>
				<path class="st3" d="M466.33,886.65c0,0-0.1-0.02-0.1-0.02C466.27,886.64,466.3,886.65,466.33,886.65z"/>
				<path class="st3" d="M466.47,886.45c-0.01,0-0.02,0-0.03,0l-0.09-0.02c0,0-0.25-0.01-0.32-0.01c-0.23,0-0.45,0.03-0.67,0.07
					c0.11,0.02,0.22,0.04,0.35,0.06c0,0,0.34,0.06,0.48,0.09l0.11-0.06C466.36,886.53,466.42,886.49,466.47,886.45z"/>
			</g>
		</g>
	</g>
	<g id="CONJUNTO_2_" class="st10">
		<g id="SOMBRA_1_">
			<g id="DELIVERY_3_">
				<path class="st4" d="M499.67,836.18c5.25,0,10.12,0.94,14.62,2.82c4.5,1.88,8.42,4.47,11.76,7.77c3.33,3.3,6.01,7.24,8.01,11.8
					c2.01,4.57,3.11,9.54,3.3,14.91v1.65c0,4.92-0.81,9.65-2.43,14.18c-1.81,5.05-4.5,9.42-8.06,13.12
					c-2.91,3.04-6.12,5.36-9.62,6.95c-3.5,1.59-7.19,2.38-11.08,2.38h-23.74c-2.5,0-4.53-2.03-4.53-4.53v-47.69
					c0-0.89-0.72-1.6-1.6-1.6l0,0c-1.31,0-2.38-1.07-2.38-2.38V841c0-2.66,2.16-4.82,4.82-4.82H499.67z M501.32,890.2h6.95
					c0.89,0,1.6-0.72,1.6-1.6v-0.05l0.97-26.23l0,0c0.11-2.49-1.88-4.57-4.38-4.57h-6.18c-0.82,0-1.47,0.67-1.45,1.49l0.7,29.22
					C499.55,889.43,500.34,890.2,501.32,890.2z"/>
				<path class="st4" d="M561.13,886.35v2.62c0,1,0.81,1.8,1.8,1.8h17.06c1,0,1.8,0.81,1.8,1.8v15.75c0,1-0.81,1.8-1.8,1.8h-28.38
					c-5.37,0-9.73-4.36-9.73-9.73v-40.26c0-0.66-0.53-1.19-1.19-1.19l0,0c-1.33,0-2.42-1.08-2.42-2.42v-9.68
					c0-2.2,1.78-3.98,3.98-3.98h35.34c1,0,1.8,0.81,1.8,1.8v12.47c0,1-0.81,1.8-1.8,1.8h-14.65c-1,0-1.8,0.81-1.8,1.8v5.91
					c0,1,0.81,1.8,1.8,1.8h4.48c1,0,1.8,0.81,1.8,1.8v12.47c0,1-0.81,1.8-1.8,1.8h-4.48C561.93,884.54,561.13,885.35,561.13,886.35z
					"/>
				<path class="st4" d="M603.34,854.34v41.41c0,2.9,2.35,5.24,5.24,5.24h12.64c1,0,1.8,0.81,1.8,1.8v9.63
					c0,2.56-2.08,4.64-4.64,4.64h-30.07c-2.39,0-4.32-1.94-4.32-4.32v-59.84c0-1.65,1.34-2.99,2.99-2.99h11.96
					C601.36,849.93,603.34,851.91,603.34,854.34z"/>
				<path class="st4" d="M625.21,908.6v-57.66c0-2.06,1.67-3.72,3.72-3.72h9.79c3.23,0,5.85,2.62,5.85,5.85v57.77
					c0,2.01-1.63,3.65-3.65,3.65h-9.84C627.84,914.47,625.21,911.84,625.21,908.6z"/>
				<path class="st4" d="M695.23,843.86h9.67c1.21,0,2.08,1.17,1.72,2.33l-2.34,7.62l-15.09,49.43l-0.81,2.64
					c-0.95,3.11-3.82,5.23-7.07,5.23h-6.79c-4.73,0-8.91-3.1-10.27-7.63l-0.87-2.87l-8.64-28.11l-7.28-23.92
					c-0.35-1.16,0.51-2.33,1.73-2.33h16.46c0.8,0,1.5,0.52,1.73,1.28l5.85,19.39l3.35,10.96c1.04,3.4,5.84,3.4,6.88,0.01l8.58-27.92
					l1.47-4.84C693.73,844.38,694.43,843.86,695.23,843.86z"/>
				<path class="st4" d="M732.38,886.35v0.13c0,2.37,1.92,4.3,4.3,4.3h14.57c1,0,1.8,0.81,1.8,1.8v15.75c0,1-0.81,1.8-1.8,1.8
					h-28.14c-5.51,0-9.98-4.47-9.98-9.98v-39.4c0-1-0.81-1.8-1.8-1.8l0,0c-1,0-1.8-0.81-1.8-1.8v-10.18c0-2.26,1.83-4.1,4.1-4.1
					h32.39c2.56,0,4.63,2.07,4.63,4.63v7c0,2.45-1.99,4.44-4.44,4.44h-12.01c-1,0-1.8,0.81-1.8,1.8v3.12c0,2.54,2.06,4.59,4.59,4.59
					h0c1.93,0,3.5,1.57,3.5,3.5v8.94c0,2-1.63,3.63-3.63,3.63h-2.66C733.19,884.54,732.38,885.35,732.38,886.35z"/>
				<path class="st4" d="M803.8,900.57l5.69,11.39c0.6,1.2-0.27,2.61-1.61,2.61h-17.63c-0.68,0-1.3-0.38-1.61-0.98l-2.23-4.37
					l-6.92-13.69c-0.62-1.23-2.48-0.79-2.48,0.59v16.65c0,1-0.81,1.8-1.8,1.8h-15.75c-1,0-1.8-0.81-1.8-1.8v-20.34
					c0-1-0.81-1.8-1.8-1.8l0,0c-1,0-1.8-0.81-1.8-1.8v-15.75c0-1,0.81-1.8,1.8-1.8l0,0c1,0,1.8-0.81,1.8-1.8v-17.38
					c0-2.63,2.13-4.76,4.76-4.76h22.25c2.99,0,5.8,0.57,8.42,1.7c2.62,1.13,4.92,2.68,6.89,4.65c1.97,1.97,3.52,4.26,4.65,6.89
					c1.13,2.63,1.7,5.43,1.7,8.42c0,3.72-0.86,7.13-2.57,10.23c-1.48,2.67-3.38,4.92-5.69,6.76c-0.66,0.52-0.84,1.44-0.47,2.19
					L803.8,900.57z M777.77,875.69c0,1,0.81,1.8,1.8,1.8h1.72c2.9,0,5.16-2.53,4.84-5.41l-0.27-2.35l-0.44-4.05l-0.12-0.94
					c-0.12-0.9-0.88-1.57-1.79-1.57h-3.94c-1,0-1.8,0.81-1.8,1.8V875.69z"/>
				<path class="st4" d="M836.1,847.23l2.68-5.2c0.71-1.37,2.12-2.23,3.66-2.23h1.61c3.1,0,7.55,2.5,5.74,6.78l-3.8,6.94
					l-6.85,14.45c-0.64,1.23-3.04,7.36-3.04,8.75v26.11c0,2.28-1.84,4.12-4.12,4.12h-7.84c-2.28,0-4.12-1.84-4.12-4.12v-22.56
					c0-0.65-0.15-1.29-0.45-1.87l-3.05-6.01L807,853.79l-4.17-7.97c-1.44-2.74,0.55-6.03,3.65-6.03h12.48
					c1.52,0,2.92,0.84,3.64,2.18l1.57,2.96v0.11l0.98,1.75l0.18,0.35C827.55,851.53,833.8,851.58,836.1,847.23L836.1,847.23z"/>
			</g>
			<g id="REWORK_4_">
				<path class="st5" d="M776.94,827.64c-5.67,0.02-10.83-4.16-14.17-9.26c-4.9-12.5-5.86-33.09-2.82-45.8
					c2.14-8.94,32.61-25.8,42.02-34.38c3.18-2.9,32.19-19.67,3.13-12.23c-17.75,4.54-31.44,5.37-36.87,2.59
					c-11.27-5.76,2.42-36.45,4.17-42.62c0.96-3.4,3.09-9.47,10.28-9.49c2.5-0.01,12.35,2.62,17.61,3.34
					c60.74,8.32,69.46-7.57,80.82,0.39c5.26,3.68,9.15,11.3,9.38,17.34c0.33,8.57,2.55,22.79-6.84,30.67
					c-20.62,17.28-19.71,19.49-38.43,33.95c-13.26,10.24-18.68,13.63-20.41,15.59c-3.12,3.52,5.99,5.49,23.05-3.04
					c9.41-4.71,25.85-7.62,30.85-7.54c11.28,0.18,13.6,8.03,10.77,25.09c-1.73,10.42-3.82,25.96-13.68,31.27
					c-7.46,4.01-25.05,2.19-28,1.84c-9.14-1.09-33.2-1.68-44.22-0.19c-7.57,1.02-15.36,1.03-23.09,2.19
					C779.19,827.54,778.03,827.64,776.94,827.64z"/>
				<path id="F_8_" class="st5" d="M470.91,827.26c-18.45,0.05-38.65-2.88-42.35-28.78c-2.38-16.65,19.17-101.29,23.7-123.01
					c4.57-21.92,13.5-63.08,15.57-71.27c1.92-7.63-4.46-11.26-16.22-10.77c-24.08,1.01-31.89,1.11-27.98-9.79
					c10.48-29.22,20.92-32.7,27.55-33c97.39-4.31,144.42-8.56,180.66-36.9c1.28-1,2.69-1.88,4.43-1.89c1.24,0,2.51,0.33,3.77,0.98
					c2.84,1.48,3.79,5.03,3.49,7.74c-4.01,51.18-10.23,71.06-43.71,76.01c-35.46,5.24-70.62-2.16-76.53,7.66
					c-2.1,3.49-10.13,15.78,29.66,11.46c20.41-2.22,45.49-6.41,54.28-9.87c19.33-7.61,0.58,38.11-5.14,47.49
					c-6.36,10.44-45.67,1.02-62.34-0.07c-21.02-1.38-30.43,6.33-31.92,11.62c-8.66,30.67-23.79,103.88-20.05,128.67
					C490.95,814.64,499.49,827.26,470.91,827.26z"/>
				<g>
					<path class="st5" d="M586.77,776.49c71.4,0.93,61.09-145.4-27.36-93.58c9.27-22.89-37.93-23.13-41.75-6.14
						c-0.97,4.3-6.69,38.34-13.99,72.23c-9.3,43.24-10.66,79.26,23.98,79.31c17.8,0.02,27.77,1,21.48-12.99
						c-4.88-10.86-6.31-26.9-4.1-37.74c0.22-1.06,1.97-0.87,1.95,0.22c-0.45,31.83,11.59,41.3,18.37,46.85
						c4.11,3.37,13.78,3.37,20.85,3.28c21.31-0.28,27.05-2.47,30.86-7.46c5.07-6.64,3.64-12.47,3.8-21.03
						c0.41-22.47-11.28-18.4-23.4-15.13c-10.89,2.94-23.38,0.38-24.73-6.59C572.25,775.16,578.16,776.38,586.77,776.49z
						 M587.02,730.23c-2.26,7.02-17.75,20.1-40.17,14.24C548.15,696.76,593.88,708.85,587.02,730.23z"/>
					<path class="st5" d="M639.98,822.22c-7.26-18.85-1.56-76.19,1.19-93.15c1.37-8.47,4.96-13.06,14.7-14.28
						c8.83-1.1,36.5-0.34,33.7,8.34c-6.53,21.95-10.55,61.89-8.05,84.39c0.96,8.66,5.18,11.15,1.87,15.54
						C678.62,829.36,642.89,830.12,639.98,822.22z"/>
					<path class="st5" d="M695.12,689.5c-3.88,15.51-18.57,24.3-34.54,20.66c-13.33-3.04-21.32-16.24-16.78-27.99
						c3.53-9.15,9.98-15.62,19.3-19.15c7.22-2.73,14.74-1.77,22.1,2.21C694.31,670.15,697.76,678.95,695.12,689.5z"/>
				</g>
				<path id="F_7_" class="st5" d="M698.13,808.78c7.4,20.35,18.69,19.01,37.15,18.96c18.17-1.61,15.85-9.71,12.45-19.41
					c-13.73-39.18-0.19-92.23,11.48-122.37c9.58-24.73,17.7-20.95,21.59-19.79c10.4,3.09,26.25,4.69,41.15,4.65
					c7.04-0.02,27.5-1.51,32.78-3.55c25.14-9.68,30.16-7.33,34.16-58.51c0.3-2.71-0.67-6.24-3.49-7.74c-2.65-1.41-6.61,0.41-8.2,0.9
					c-25.53,7.87-55.21,11.33-83.22,10.83c-90.96-1.61-124.72-10.84-161.87-1.75c-4.84,1.18-7.42,13.32-10.3,32.23
					c-1.23,8.07,5.02,13.85,13.14,13c4.3-0.45,53.88-6.01,68.61-1.29c2.16,0.69,5.65,3.53,4.99,6.27
					C698.06,704.9,687.63,779.92,698.13,808.78z"/>
			</g>
		</g>
		<g id="CONJUNTO_3_">
			<g id="DELIVERY_2_">
				<path class="st6" d="M497.28,832.87c5.25,0,10.12,0.94,14.62,2.82c4.5,1.88,8.42,4.47,11.76,7.77c3.33,3.3,6.01,7.24,8.01,11.8
					c2.01,4.57,3.11,9.54,3.3,14.91v1.65c0,4.92-0.81,9.65-2.43,14.18c-1.81,5.05-4.5,9.42-8.06,13.12
					c-2.91,3.04-6.12,5.36-9.62,6.95c-3.5,1.59-7.19,2.38-11.08,2.38h-23.74c-2.5,0-4.53-2.03-4.53-4.53v-47.69
					c0-0.89-0.72-1.6-1.6-1.6l0,0c-1.31,0-2.38-1.07-2.38-2.38v-14.57c0-2.66,2.16-4.82,4.82-4.82H497.28z M498.93,886.89h6.95
					c0.89,0,1.6-0.72,1.6-1.6v-0.05l0.97-26.23l0,0c0.11-2.49-1.88-4.57-4.38-4.57h-6.18c-0.82,0-1.47,0.67-1.45,1.49l0.7,29.22
					C497.16,886.12,497.96,886.89,498.93,886.89z"/>
				<path class="st6" d="M558.74,883.04v2.62c0,1,0.81,1.8,1.8,1.8h17.06c1,0,1.8,0.81,1.8,1.8v15.75c0,1-0.81,1.8-1.8,1.8h-28.38
					c-5.37,0-9.73-4.36-9.73-9.73v-40.26c0-0.66-0.53-1.19-1.19-1.19l0,0c-1.33,0-2.42-1.08-2.42-2.42v-9.68
					c0-2.2,1.78-3.98,3.98-3.98h35.34c1,0,1.8,0.81,1.8,1.8v12.47c0,1-0.81,1.8-1.8,1.8h-14.65c-1,0-1.8,0.81-1.8,1.8v5.91
					c0,1,0.81,1.8,1.8,1.8h4.48c1,0,1.8,0.81,1.8,1.8v12.47c0,1-0.81,1.8-1.8,1.8h-4.48C559.55,881.23,558.74,882.04,558.74,883.04z
					"/>
				<path class="st6" d="M600.95,851.03v41.41c0,2.9,2.35,5.24,5.24,5.24h12.64c1,0,1.8,0.81,1.8,1.8v9.63
					c0,2.56-2.08,4.64-4.64,4.64h-30.07c-2.39,0-4.32-1.94-4.32-4.32v-59.84c0-1.65,1.34-2.99,2.99-2.99h11.96
					C598.98,846.62,600.95,848.6,600.95,851.03z"/>
				<path class="st6" d="M622.82,905.29v-57.66c0-2.06,1.67-3.72,3.72-3.72h9.79c3.23,0,5.85,2.62,5.85,5.85v57.77
					c0,2.01-1.63,3.65-3.65,3.65h-9.84C625.45,911.16,622.82,908.53,622.82,905.29z"/>
				<path class="st6" d="M692.84,840.55h9.67c1.21,0,2.08,1.17,1.72,2.33l-2.34,7.62l-15.09,49.43l-0.81,2.64
					c-0.95,3.11-3.82,5.23-7.07,5.23h-6.79c-4.73,0-8.91-3.1-10.27-7.63l-0.87-2.87l-8.64-28.11l-7.28-23.92
					c-0.35-1.16,0.51-2.33,1.73-2.33h16.46c0.8,0,1.5,0.52,1.73,1.28l5.85,19.39l3.35,10.96c1.04,3.4,5.84,3.4,6.88,0.01l8.58-27.92
					l1.47-4.84C691.34,841.07,692.04,840.55,692.84,840.55z"/>
				<path class="st6" d="M729.99,883.04v0.13c0,2.37,1.92,4.3,4.3,4.3h14.57c1,0,1.8,0.81,1.8,1.8v15.75c0,1-0.81,1.8-1.8,1.8
					h-28.14c-5.51,0-9.98-4.47-9.98-9.98v-39.4c0-1-0.81-1.8-1.8-1.8l0,0c-1,0-1.8-0.81-1.8-1.8v-10.18c0-2.26,1.83-4.1,4.1-4.1
					h32.39c2.56,0,4.63,2.07,4.63,4.63v7c0,2.45-1.99,4.44-4.44,4.44H731.8c-1,0-1.8,0.81-1.8,1.8v3.12c0,2.54,2.06,4.59,4.59,4.59
					l0,0c1.93,0,3.5,1.57,3.5,3.5v8.94c0,2-1.63,3.63-3.63,3.63h-2.66C730.8,881.23,729.99,882.04,729.99,883.04z"/>
				<path class="st6" d="M801.41,897.26l5.69,11.39c0.6,1.2-0.27,2.61-1.61,2.61h-17.63c-0.68,0-1.3-0.38-1.61-0.98l-2.23-4.37
					l-6.92-13.69c-0.62-1.23-2.48-0.79-2.48,0.59v16.65c0,1-0.81,1.8-1.8,1.8h-15.75c-1,0-1.8-0.81-1.8-1.8v-20.34
					c0-1-0.81-1.8-1.8-1.8l0,0c-1,0-1.8-0.81-1.8-1.8v-15.75c0-1,0.81-1.8,1.8-1.8l0,0c1,0,1.8-0.81,1.8-1.8v-17.38
					c0-2.63,2.13-4.76,4.76-4.76h22.25c2.99,0,5.8,0.57,8.42,1.7c2.62,1.13,4.92,2.68,6.89,4.65c1.97,1.97,3.52,4.26,4.65,6.89
					c1.13,2.63,1.7,5.43,1.7,8.42c0,3.72-0.86,7.13-2.57,10.23c-1.48,2.67-3.38,4.92-5.69,6.76c-0.66,0.52-0.84,1.44-0.47,2.19
					L801.41,897.26z M775.38,872.38c0,1,0.81,1.8,1.8,1.8h1.72c2.9,0,5.16-2.53,4.84-5.41l-0.27-2.35l-0.44-4.05l-0.12-0.94
					c-0.12-0.9-0.88-1.57-1.79-1.57h-3.94c-1,0-1.8,0.81-1.8,1.8V872.38z"/>
				<path class="st6" d="M833.71,843.92l2.68-5.2c0.71-1.37,2.12-2.23,3.66-2.23h1.61c3.1,0,7.55,2.5,5.74,6.78l-3.8,6.94
					l-6.85,14.45c-0.64,1.23-3.04,7.36-3.04,8.75v26.11c0,2.28-1.84,4.12-4.12,4.12h-7.84c-2.28,0-4.12-1.84-4.12-4.12v-22.56
					c0-0.65-0.15-1.29-0.45-1.87l-3.05-6.01l-9.51-18.59l-4.17-7.97c-1.44-2.74,0.55-6.03,3.65-6.03h12.48
					c1.52,0,2.92,0.84,3.64,2.18l1.57,2.96v0.11l0.98,1.75l0.18,0.35C825.16,848.22,831.42,848.27,833.71,843.92L833.71,843.92z"/>
			</g>
			<g id="REWORK_3_">
				<path class="st7" d="M774.55,824.33c-5.67,0.02-10.83-4.16-14.17-9.26c-4.9-12.5-5.86-33.09-2.82-45.8
					c2.14-8.94,32.61-25.8,42.02-34.38c3.18-2.9,32.19-19.67,3.13-12.23c-17.75,4.54-31.44,5.37-36.87,2.59
					c-11.27-5.76,2.42-36.45,4.17-42.62c0.96-3.4,3.09-9.47,10.28-9.49c2.5-0.01,12.35,2.62,17.61,3.34
					c60.74,8.32,69.46-7.57,80.82,0.39c5.26,3.68,9.15,11.3,9.38,17.34c0.33,8.57,2.55,22.79-6.84,30.67
					c-20.62,17.28-19.71,19.49-38.43,33.95c-13.26,10.24-18.68,13.63-20.41,15.59c-3.12,3.52,5.99,5.49,23.05-3.04
					c9.41-4.71,25.85-7.62,30.85-7.54c11.28,0.18,13.6,8.03,10.77,25.09c-1.73,10.42-3.82,25.96-13.68,31.27
					c-7.46,4.01-25.05,2.19-28,1.84c-9.14-1.09-33.2-1.68-44.22-0.19c-7.57,1.02-15.36,1.03-23.09,2.19
					C776.8,824.23,775.64,824.33,774.55,824.33z"/>
				<path id="F_6_" class="st7" d="M468.52,823.95c-18.45,0.05-38.65-2.88-42.35-28.78c-2.38-16.65,19.17-101.29,23.7-123.01
					c4.57-21.92,13.5-63.08,15.57-71.27c1.92-7.63-4.46-11.26-16.22-10.77c-24.08,1.01-31.89,1.11-27.98-9.79
					c10.48-29.22,20.92-32.7,27.55-33c97.39-4.31,144.42-8.56,180.66-36.9c1.28-1,2.69-1.88,4.43-1.89c1.24,0,2.51,0.33,3.77,0.98
					c2.84,1.48,3.79,5.03,3.49,7.74c-4.01,51.18-10.23,71.06-43.71,76.01c-35.46,5.24-70.62-2.16-76.53,7.66
					c-2.1,3.49-10.13,15.78,29.66,11.46c20.41-2.22,45.49-6.41,54.28-9.87c19.33-7.61,0.58,38.11-5.14,47.49
					c-6.36,10.44-45.67,1.02-62.34-0.07c-21.02-1.38-30.43,6.33-31.92,11.62c-8.66,30.67-23.79,103.88-20.05,128.67
					C488.56,811.33,497.1,823.95,468.52,823.95z"/>
				<g>
					<path class="st7" d="M584.38,773.18c71.4,0.93,61.09-145.4-27.36-93.58c9.27-22.89-37.93-23.13-41.75-6.14
						c-0.97,4.3-6.69,38.34-13.99,72.23c-9.3,43.24-10.66,79.26,23.98,79.31c17.8,0.02,27.77,1,21.48-12.99
						c-4.88-10.86-6.31-26.9-4.1-37.74c0.22-1.06,1.97-0.87,1.95,0.22c-0.45,31.83,11.59,41.3,18.37,46.85
						c4.11,3.37,13.78,3.37,20.85,3.28c21.31-0.28,27.05-2.47,30.86-7.46c5.07-6.64,3.64-12.47,3.8-21.03
						c0.41-22.47-11.28-18.4-23.4-15.13c-10.89,2.94-23.38,0.38-24.73-6.59C569.86,771.85,575.77,773.06,584.38,773.18z
						 M584.63,726.92c-2.26,7.02-17.75,20.1-40.17,14.24C545.77,693.45,591.49,705.54,584.63,726.92z"/>
					<path class="st7" d="M637.59,818.91c-7.26-18.85-1.56-76.19,1.19-93.15c1.37-8.47,4.96-13.06,14.7-14.28
						c8.83-1.1,36.5-0.34,33.7,8.34c-6.53,21.95-10.55,61.89-8.05,84.39c0.96,8.66,5.18,11.15,1.87,15.54
						C676.23,826.05,640.51,826.81,637.59,818.91z"/>
					<path class="st7" d="M692.73,686.19c-3.88,15.51-18.57,24.3-34.54,20.66c-13.33-3.04-21.32-16.24-16.78-27.99
						c3.53-9.15,9.98-15.62,19.3-19.15c7.22-2.73,14.74-1.77,22.1,2.21C691.92,666.84,695.37,675.64,692.73,686.19z"/>
				</g>
				<path id="F_5_" class="st7" d="M695.74,805.47c7.4,20.35,18.69,19.01,37.15,18.96c18.17-1.61,15.85-9.71,12.45-19.41
					c-13.73-39.18-0.19-92.23,11.48-122.37c9.58-24.73,17.7-20.95,21.59-19.79c10.4,3.09,26.25,4.69,41.15,4.65
					c7.04-0.02,27.5-1.51,32.78-3.54c25.14-9.68,30.16-7.33,34.16-58.51c0.3-2.71-0.67-6.24-3.49-7.74c-2.65-1.41-6.61,0.41-8.2,0.9
					c-25.53,7.87-55.21,11.33-83.22,10.83c-90.96-1.61-124.72-10.84-161.87-1.75c-4.84,1.18-7.42,13.32-10.3,32.23
					c-1.23,8.07,5.02,13.85,13.14,13c4.3-0.45,53.88-6.01,68.61-1.29c2.16,0.69,5.65,3.53,4.99,6.27
					C695.67,701.59,685.24,776.61,695.74,805.47z"/>
			</g>
		</g>
	</g>
	<g id="BRILHOS_1_" class="st10">
		<g>
			<path class="st3" d="M505.88,891.33h2.23c3.32,0,6.02-2.69,6.04-6l0.97-26.15c0.1-2.36-0.79-4.72-2.44-6.45
				c-1.65-1.73-3.97-2.72-6.37-2.72h-2.23c2.39,0,4.71,0.99,6.37,2.72s2.54,4.09,2.44,6.45l-0.97,26.15
				C511.9,888.64,509.19,891.33,505.88,891.33z"/>
			<path class="st3" d="M481.97,903.93v-47.69c0-2.61-1.32-4.84-3.64-5.68v-12.87c0-0.21,0.17-0.38,0.38-0.38h-2.36
				c-0.21,0-0.38,0.17-0.38,0.38v12.87c2.32,0.84,3.98,3.07,3.98,5.68v47.69c0,0.05,0.04,0.09,0.09,0.09h2.02
				C482.01,904.02,481.97,903.98,481.97,903.93z"/>
		</g>
		<path class="st3" d="M546.67,897.09v-40.26c0-2.39-1.5-4.44-3.61-5.26V844h-2.74v7.58c2.11,0.81,3.61,2.86,3.61,5.26v40.26
			c0,2.92,2.37,5.29,5.29,5.29h2.74C549.05,902.39,546.67,900.01,546.67,897.09z"/>
		<rect x="586.03" y="851.06" class="st3" width="2.82" height="58.27"/>
		<path class="st3" d="M630.8,905.29v-56.95h-3.54v56.95c0,0.79,0.64,1.43,1.43,1.43h3.54C631.45,906.72,630.8,906.08,630.8,905.29z
			"/>
		<g>
			<path class="st3" d="M686.12,879.81l9.35-30.61l1.3-4.21h-1.97l-0.91,2.99l-8.58,27.92c-0.75,2.45-2.57,4.31-4.86,5.16
				C681.33,881.39,684.73,880.92,686.12,879.81z"/>
			<path class="st3" d="M669.04,898.9l-0.87-2.87l-8.65-28.13l-6.24-20.51h-2.94l6.24,20.51l8.65,28.13l0.87,2.87
				c0.81,2.68,3.23,4.48,6.03,4.48h2.94C672.27,903.37,669.85,901.57,669.04,898.9z"/>
		</g>
		<path class="st3" d="M718,896.85v-39.4c0-2.5-1.48-4.66-3.61-5.66V844h-2.82v7.79c2.13,0.99,3.61,3.16,3.61,5.66v39.4
			c0,3.05,2.48,5.54,5.54,5.54h2.82C720.49,902.39,718,899.9,718,896.85z"/>
		<g>
			<path class="st3" d="M781.05,878.36c0.56,0.17,1.53,0.26,1.53,0.26c2.06-0.3,3.92-1.13,5.68-3.11c1.76-1.97,2.6-4.61,2.31-7.24
				l-0.27-2.35l-0.45-4.12l-0.12-0.94c-0.4-3.1-3.06-5.43-6.19-5.43h-0.72c-0.29,0-0.58,0.03-0.86,0.07
				c2.74,0.38,4.97,2.56,5.33,5.37l0.12,0.94l0.45,4.12l0.27,2.35c0.3,2.63-0.54,5.27-2.31,7.24
				C784.56,876.94,782.89,877.92,781.05,878.36z"/>
			<path class="st3" d="M758.89,883.45V871.8c2.13-0.99,3.61-3.16,3.61-5.66v-17.38c0-0.18,0.15-0.33,0.33-0.33h-2.8
				c-0.18,0-0.33,0.15-0.33,0.33v17.38c0,2.5-1.48,4.66-3.61,5.66v11.65c2.13,0.99,3.61,3.16,3.61,5.66v17.71h2.8v-17.71
				C762.5,886.61,761.02,884.44,758.89,883.45z"/>
			<path class="st3" d="M783.96,890.21c-0.99-1.95-1.23-2.56-3.4-2.56c-1.03,0-1.09,0.02-1.81,0.15c0.96,0.55,1.77,1.37,2.3,2.41
				l6.92,13.67l1.5,2.94h2.91l-1.5-2.94L783.96,890.21z"/>
		</g>
		<g>
			<path class="st3" d="M834.25,851.28c2.05-0.39,4.07-3.09,4.07-3.09l3.34-7.27h-1.42l-2.61,5.07c-1.37,2.6-3.72,4.46-6.46,5.22
				C832.08,851.46,834.25,851.28,834.25,851.28z"/>
			<path class="st3" d="M824.31,873.07l-3.05-6.01l-9.52-18.6l-3.95-7.54h-3.17l3.95,7.54l9.52,18.6l3.05,6.01
				c0.61,1.19,0.93,2.53,0.93,3.88v22.25h3.17v-22.25C825.24,875.61,824.91,874.27,824.31,873.07z"/>
		</g>
		<g>
			<path class="st3" d="M836.65,683.41c15.17,0,24.79-1.84,31.81-3.19c1.97-0.38,3.7-0.71,5.22-0.93c-0.71-0.2-1.48-0.29-2.36-0.29
				c-2.17,0-4.97,0.54-8.51,1.21c-6.54,1.25-15.34,2.93-28.77,3.16C834.92,683.4,835.8,683.41,836.65,683.41z"/>
			<path class="st3" d="M853.11,775.36c7.31-3.66,19.2-6.12,25.56-6.84c-0.67-0.12-1.46-0.21-2.41-0.22l-0.14,0
				c-4.44,0-19.87,2.67-28.66,7.07c-6.95,3.48-13.4,5.66-18.55,6.31c0.76,0.13,1.62,0.21,2.59,0.21
				C837.03,781.88,844.71,779.56,853.11,775.36z"/>
			<path class="st3" d="M767.87,721.3c0.65,0.33,2.71,1.11,7.62,1.11c0.94,0,1.94-0.03,2.98-0.09c-3.02-0.21-4.43-0.76-4.95-1.02
				c-2.02-1.03-2.53-5.53-1.38-12.05c1.27-7.17,4.17-15.16,6.09-20.45c0.81-2.22,1.39-3.82,1.71-4.96c0.89-3.15,1.95-4.94,3.54-5.74
				c-1.45-0.29-2.68-0.52-3.17-0.53c-3.1,0.01-4.73,1.71-6.02,6.26c-0.32,1.14-0.9,2.74-1.71,4.96c-1.92,5.29-4.82,13.28-6.09,20.45
				C765.34,715.77,765.85,720.27,767.87,721.3z"/>
			<path class="st3" d="M851.59,817.63c-5.6-0.67-15.91-1.12-25.67-1.12c-0.89,0-1.84,0-2.82,0.01c8.87,0.08,17.78,0.5,22.84,1.1
				c0.96,0.12,6.05,0.69,11.76,0.69c0.97,0,1.87-0.02,2.72-0.05C855.98,818.13,852.39,817.73,851.59,817.63z"/>
			<path class="st3" d="M770,813.02c-4.22-11.21-5.36-30.61-2.47-42.71c1-4.17,16.48-14.77,24.8-20.46
				c6.37-4.36,12.39-8.48,15.89-11.67c0.42-0.38,2.25-1.62,3.71-2.62c9.86-6.72,14.94-10.45,13.45-15.28
				c-0.45-1.47-1.9-3.93-6.52-3.93c-0.92,0-2,0.09-3.27,0.27c2.77,0.67,3.78,2.49,4.14,3.66c1.49,4.83-3.59,8.56-13.45,15.28
				c-1.46,1-3.29,2.24-3.71,2.62c-3.51,3.19-9.52,7.31-15.89,11.67c-8.32,5.69-23.81,16.29-24.8,20.46
				c-2.89,12.1-1.76,31.51,2.47,42.71c2.33,3.39,6.14,6.88,10.17,6.88h0.02c0.87,0,1.82-0.08,2.9-0.25
				c0.19-0.03,0.38-0.05,0.58-0.08C774.81,818.64,771.91,815.8,770,813.02z"/>
		</g>
		<g>
			<path class="st3" d="M561.57,590.97c-1.04,0-2.06-0.01-3.07-0.01c-1.78-0.01-3.52-0.01-5.21-0.01c-0.49,0-0.96,0-1.44,0
				c0.91,0,1.84,0.01,2.78,0.01c1.87,0.01,3.79,0.01,5.75,0.01C560.76,590.98,561.17,590.97,561.57,590.97z"/>
			<path class="st3" d="M606.45,606.66c-9.52,3.75-35.09,7.94-55.42,10.15c-4.86,0.53-9.24,0.83-13.07,0.91
				c0.62,0.01,1.25,0.02,1.9,0.02c4.27,0,9.33-0.31,15.05-0.93c19.35-2.1,43.44-6,53.93-9.61c-0.07-0.5-0.17-0.86-0.27-1.09
				C608.26,606.12,607.6,606.21,606.45,606.66z"/>
			<path class="st3" d="M436.81,586.08c-6.04-0.12-7.75-0.81-8.2-1.13c-0.02-0.28-0.01-1.18,0.69-3.13
				c10.57-29.49,20.35-29.92,23.57-30.06c101.55-4.5,146.55-9.18,183.2-37.84c0.01-0.01,0.02-0.01,0.02-0.02
				c-0.14-0.19-0.3-0.35-0.49-0.45c-0.61-0.32-1.18-0.48-1.71-0.48c-0.45,0-1.19,0.54-1.71,0.95
				c-36.65,28.66-81.65,33.34-183.2,37.84c-3.22,0.14-13,0.58-23.57,30.06c-0.7,1.96-0.71,2.85-0.69,3.13
				c0.5,0.35,2.47,1.15,9.97,1.15C435.37,586.1,436.08,586.09,436.81,586.08z"/>
			<path class="st3" d="M434.44,794.54c-1.72-12.07,11.39-68.35,18.44-98.58c2.34-10.03,4.18-17.95,5.22-22.9
				c4.74-22.74,13.57-63.35,15.53-71.09c1.28-5.09-0.28-8.52-1.83-10.5c-3.02-3.87-8.62-5.84-16.65-5.84c-0.65,0-1.32,0.02-2,0.04
				c7.02,0.29,11.99,2.23,14.77,5.8c1.54,1.98,3.11,5.41,1.83,10.5c-1.95,7.74-10.78,48.35-15.53,71.09
				c-1.03,4.95-2.88,12.87-5.22,22.9c-7.05,30.23-20.16,86.51-18.44,98.58c2.96,20.73,17.13,24.97,37.48,24.97l0.48,0
				c0.48,0,0.92-0.01,1.37-0.01C450.63,819.21,437.3,814.57,434.44,794.54z"/>
			<path class="st3" d="M557.86,647.51c-6.16-0.88-11.97-1.71-16.34-1.99c-1.74-0.11-3.45-0.17-5.11-0.17
				c-0.54,0-1.04,0.03-1.56,0.04c0.92,0.03,1.85,0.07,2.79,0.13c4.36,0.29,10.18,1.11,16.34,1.99c9.67,1.38,20.64,2.94,29.33,2.94
				c0.67,0,1.3-0.01,1.9-0.03C576.87,650.22,566.81,648.79,557.86,647.51z"/>
		</g>
		<g>
			<path class="st3" d="M585.06,768.74c0.84,0,1.67-0.03,2.49-0.07c-1.23-0.05-2.41-0.1-3.49-0.16c-1.69-0.09-3.15-0.16-4.43-0.16
				c-0.74,0-1.47,0.03-2.19,0.11c0.32,0.02,0.64,0.03,0.97,0.05c1.8,0.09,3.84,0.2,6.03,0.23L585.06,768.74z"/>
			<path class="st3" d="M601.89,785.28l1.4-0.38c2.48-0.68,4.87-1.32,7.02-1.7c-0.56-0.2-1.3-0.34-2.34-0.34
				c-2.84,0-6.48,0.99-10.33,2.04l-1.4,0.38c-2.37,0.64-4.87,1.05-7.37,1.24c0.91,0.07,1.83,0.12,2.79,0.12
				C595.07,786.63,598.61,786.17,601.89,785.28z"/>
			<path class="st3" d="M558.32,746.97c0.97,0.06,1.93,0.09,2.89,0.09c17.79,0,30.77-10.91,33.3-18.79
				c1.79-5.59,0.93-11.21-2.44-15.82c-3.94-5.4-10.96-8.76-18.31-8.76c-0.92,0-1.86,0.06-2.8,0.17c6.28,0.74,12.03,3.89,15.46,8.59
				c3.37,4.61,4.23,10.24,2.44,15.82C586.46,735.74,574.68,745.92,558.32,746.97z"/>
			<path class="st3" d="M530.91,820.56c-8.66-0.01-14.83-2.45-18.86-7.45c-10.68-13.24-5.56-44.29-0.78-66.49
				c5.2-24.18,9.67-48.74,12.07-61.94c0.96-5.28,1.65-9.1,1.91-10.25c0.97-4.29,7.72-7.74,15.92-8.4c-0.91-0.08-1.85-0.12-2.82-0.12
				c-9.44,0-17.68,3.74-18.75,8.52c-0.26,1.15-0.95,4.97-1.91,10.25c-2.4,13.2-6.86,37.76-12.07,61.94
				c-4.78,22.2-9.89,53.25,0.78,66.49c4.03,5,10.2,7.43,18.86,7.45c1.11,0,2.19,0.01,3.24,0.01c1.15,0.01,2.27,0.01,3.34,0.01
				c0.55,0,1.32,0,2.21-0.01C533.04,820.56,531.99,820.56,530.91,820.56z"/>
			<path class="st3" d="M555.42,685.67l-1.76,4.34l11.25-6.59c10.71-6.28,20.61-9.75,29.47-10.39c-0.9-0.07-1.81-0.11-2.75-0.11
				c-9.59,0-20.48,3.53-32.37,10.5L555.42,685.67z"/>
			<path class="st3" d="M571.43,817.91l-0.24-0.19c-6.33-5.18-16.92-13.84-16.51-43.17c0.02-1.43-0.52-2.78-1.52-3.8
				c-1.02-1.03-2.46-1.63-3.94-1.63c-1.03,0-1.99,0.29-2.81,0.78c0.4,0.24,0.78,0.52,1.1,0.85c1,1.01,1.54,2.36,1.52,3.8
				c-0.41,29.32,10.18,37.99,16.51,43.17l0.24,0.19c1.86,1.52,6.88,2.3,14.91,2.3c1.06,0,2.1-0.01,3.08-0.02c0.06,0,0.11,0,0.17,0
				C577.3,820.03,573.1,819.27,571.43,817.91z"/>
		</g>
		<path class="st3" d="M647.34,817.2c-6.5-17.32-1.59-71.86,1.47-90.74c1.17-7.22,3.71-9.69,10.87-10.59
			c1.22-0.15,2.85-0.26,4.65-0.32c-0.93-0.03-1.88-0.04-2.88-0.04c-2.89,0-5.6,0.13-7.42,0.36c-7.16,0.89-9.7,3.37-10.87,10.59
			c-3.06,18.88-7.96,73.42-1.47,90.74c0.96,0.99,6.35,3.02,17,3.02c0.98,0,1.92-0.02,2.84-0.05
			C652.74,819.85,648.2,818.1,647.34,817.2z"/>
		<path class="st3" d="M664.83,702.52c-5.55-1.27-10.19-4.72-12.72-9.47c-2.16-4.05-2.48-8.53-0.91-12.6
			c3.07-7.97,8.7-13.56,16.74-16.6c1.34-0.51,2.71-0.84,4.09-1.05c-0.98-0.14-1.95-0.22-2.91-0.22c-2.32,0-4.62,0.43-6.83,1.26
			c-8.03,3.04-13.66,8.63-16.74,16.6c-1.57,4.07-1.25,8.54,0.91,12.6c2.53,4.75,7.17,8.21,12.72,9.47c2.06,0.47,4.13,0.71,6.16,0.71
			c0.94,0,1.85-0.07,2.75-0.16C667.01,702.95,665.92,702.77,664.83,702.52z"/>
		<g>
			<path class="st3" d="M802.5,613.94c28.36,0,55.77-3.83,79.27-11.08c0.02-0.01,0.04-0.01,0.06-0.02c-0.2-0.54-0.48-0.98-0.85-1.18
				c0,0-0.1-0.03-0.33-0.03c-1.03,0-2.51,0.53-3.5,0.88c-0.4,0.14-0.76,0.27-1.04,0.36c-22.7,7-49.05,10.8-76.38,11.05
				C800.66,613.93,801.58,613.94,802.5,613.94z"/>
			<path class="st3" d="M785.32,658.61l-0.47-0.14c-1.21-0.38-3.04-0.95-5.27-0.95c-0.95,0-1.87,0.11-2.78,0.31
				c0.94,0.19,1.76,0.44,2.39,0.64l0.47,0.14c9.27,2.76,24.33,4.47,39.31,4.47l0.57,0c0.53,0,1.14-0.01,1.79-0.03
				C807.48,662.82,793.91,661.17,785.32,658.61z"/>
			<path class="st3" d="M630.84,646.2c-1.24-1.45-1.72-3.38-1.38-5.59c0.99-6.51,3.99-26.21,7.13-28.63
				c10.02-2.44,20.22-3.61,32.74-3.76c-0.97-0.01-1.93-0.02-2.88-0.02c-13.81,0-24.77,1.17-35.51,3.78
				c-3.14,2.42-6.14,22.12-7.13,28.63c-0.34,2.21,0.14,4.14,1.38,5.59c1.33,1.54,3.38,2.39,5.8,2.39c0.36,0,0.74-0.02,1.11-0.06
				l0.66-0.07c0.53-0.06,1.05-0.11,1.57-0.16C632.92,647.93,631.72,647.22,630.84,646.2z"/>
			<path class="st3" d="M705.56,803.96c-10.08-27.72,0.11-101.47,10.57-144.99c1.31-5.44-3.77-10.19-7.95-11.53
				c-4.41-1.41-11.41-2.1-21.4-2.1c-0.93,0-1.89,0.01-2.88,0.02c8.52,0.12,14.63,0.8,18.63,2.08c4.17,1.34,9.26,6.09,7.95,11.53
				c-10.46,43.52-20.65,117.28-10.57,144.99c5.59,15.36,12.81,16.07,26.15,16.07c1,0,2.04-0.01,3.09-0.01
				C717.42,819.87,710.77,818.3,705.56,803.96z"/>
		</g>
	</g>
	<g id="MASCOTE_JACAR_1_" class="st10">
		<path class="st5" d="M836.64,571.23c-1.92,0.33-5.13-0.35-6.58-0.71c-0.44-0.11-0.9,0.09-1.11,0.5
			c-1.44,2.74-6.84,12.08-7.37-0.84c-0.02-0.43-0.34-0.79-0.77-0.84l-9.05-0.97c-0.43-0.05-0.84,0.21-0.98,0.62
			c-1.19,3.49-6.7,18.11-9.92-2.01c0,0,4.22,18.52,9.05,0.75c0.12-0.43,0.53-0.72,0.97-0.67l11.04,1.23
			c0.34,0.04,0.61,0.32,0.62,0.67c0.08,2.54,0.7,11.75,5.75,0.39c0.16-0.35,0.55-0.54,0.92-0.42c1.6,0.51,5.89,1.65,9.43,0.54
			c3.76-15.07-1.23-25.17-9.08-15.72l-31.4-11.88c0,0,2.54-13.72-12.46-18.87c-8.3-2.85-14.43,2.29-17.51,5.77
			c-1.16,1.31-8.67-13.07-8.67-13.07c-0.91-1.19-2.69-1.23-3.65-0.08l-5.14,5.2c-1.45,1.45-3.07,1.73-4.56,0.18l-5.5-5.72
			c-0.99-1.03-2.65-1.02-3.63,0.03l-6.03,6c-1.18,1.27-2.67,1.4-4.01,0.3l-6.22-5.11c-1.07-0.88-2.64-0.84-3.66,0.09l-6.05,5.51
			c-0.93,0.84-2.33,0.87-3.3,0.07l-3.74-3.13c-0.84-0.7-2.05-0.72-2.91-0.04l-5.62,4.41c-1.71,1.07-3.62,2.25-5.61,3.57
			c-8.62,5.73-18.13,14.13-19.95,27.66c-5.47,40.72,88.34,38.1,106.31,38.33c3.84,0.05,6.72-3.57,5.74-7.28
			c-0.48-1.82-1.53-3.64-3.59-4.99c-3.04-2-6.54-3.62-10.31-4.96c-2.4-0.85-4.63-5.37-7.2-6.03c-2.64-0.67-6.17,2.37-8.89,1.85
			c-2.75-0.52-5.21-5.37-7.95-5.78c-3.1-0.46-6.76,3.34-9.71,2.94c-1.96-0.27-2.18-2.09-2.67-3.45c0,0,0.5,1.52,1.86,1.96
			c1.81,0.59,7.26-3.49,10.35-3.6c3.96-0.14,6.82,6.47,10.73,5.03c9.6-3.52,8.48-0.25,14.93,4.56c0.59,0.44,8.56,3.66,9.95,4.57
			c2.22,1.46,3.8,4.18,3.8,4.18h41.64c0,0,9.23,0.21,11.71-6.25c0.65-1.7,1.2-3.37,1.65-4.99
			C837.8,570.97,837.25,571.13,836.64,571.23z M835.62,551.87c1.16,0,2.09,1.44,2.09,4.71c0,0.63-4.19-0.26-4.19-1.04
			C833.52,552.27,834.46,551.87,835.62,551.87z M791.83,539.2c0.01-0.14,0.02-0.29,0.02-0.43c0-3.51-2.84-6.35-6.35-6.35
			s-6.35,2.84-6.35,6.35c0,3.51,2.84,6.35,6.35,6.35c0.47,0,0.94-0.06,1.38-0.15c-1.24,0.59-2.61,0.94-4.08,0.94
			c-5.21,0-9.43-4.22-9.43-9.43s4.22-9.43,9.43-9.43c5.21,0,9.43,4.22,9.43,9.43C792.24,537.42,792.09,538.34,791.83,539.2z"/>
		<path class="st6" d="M833.94,568.54c-1.92,0.33-5.13-0.35-6.58-0.71c-0.44-0.11-0.9,0.09-1.11,0.5
			c-1.44,2.74-6.84,12.08-7.37-0.84c-0.02-0.43-0.34-0.79-0.77-0.84l-9.05-0.97c-0.43-0.05-0.84,0.21-0.98,0.62
			c-1.19,3.49-6.7,18.11-9.92-2.01c0,0,4.22,18.52,9.05,0.75c0.12-0.43,0.53-0.72,0.97-0.67l11.04,1.23
			c0.34,0.04,0.61,0.32,0.62,0.67c0.08,2.54,0.7,11.75,5.75,0.39c0.16-0.35,0.55-0.54,0.92-0.42c1.6,0.51,5.89,1.65,9.43,0.54
			c3.76-15.07-1.23-25.17-9.08-15.72l-31.4-11.88c0,0,2.54-13.72-12.46-18.87c-8.3-2.85-14.43,2.29-17.51,5.77
			c-1.16,1.31-8.67-13.07-8.67-13.07c-0.91-1.19-2.69-1.23-3.65-0.08l-5.14,5.2c-1.45,1.45-3.07,1.73-4.56,0.18l-5.5-5.72
			c-0.99-1.03-2.65-1.02-3.63,0.03l-6.03,6c-1.18,1.27-2.67,1.4-4.01,0.3l-6.22-5.11c-1.07-0.88-2.64-0.84-3.66,0.09l-6.05,5.51
			c-0.93,0.84-2.33,0.87-3.3,0.07l-3.74-3.13c-0.84-0.7-2.05-0.72-2.91-0.04l-5.62,4.41c-1.71,1.07-3.62,2.25-5.61,3.57
			c-8.62,5.73-18.13,14.13-19.95,27.66c-5.47,40.72,88.34,38.1,106.31,38.33c3.84,0.05,6.72-3.57,5.74-7.28
			c-0.48-1.82-1.53-3.64-3.59-4.99c-3.04-2-6.54-3.62-10.31-4.96c-2.4-0.85-4.63-5.37-7.2-6.03c-2.64-0.67-6.17,2.37-8.9,1.85
			c-2.75-0.52-5.21-5.37-7.95-5.78c-3.1-0.46-6.76,3.34-9.71,2.94c-1.96-0.27-2.18-2.09-2.67-3.45c0,0,0.5,1.52,1.86,1.96
			c1.81,0.59,7.26-3.49,10.35-3.6c3.96-0.14,6.82,6.47,10.73,5.03c9.6-3.52,8.48-0.25,14.93,4.56c0.59,0.44,8.56,3.66,9.95,4.57
			c2.22,1.46,3.8,4.18,3.8,4.18h41.64c0,0,9.23,0.21,11.71-6.25c0.65-1.7,1.2-3.37,1.65-4.99
			C835.1,568.27,834.55,568.43,833.94,568.54z M832.92,549.17c1.16,0,2.09,1.44,2.09,4.71c0,0.63-4.19-0.26-4.19-1.04
			C830.82,549.57,831.76,549.17,832.92,549.17z M789.13,536.5c0.01-0.14,0.02-0.29,0.02-0.43c0-3.51-2.84-6.35-6.35-6.35
			s-6.35,2.84-6.35,6.35c0,3.51,2.84,6.35,6.35,6.35c0.47,0,0.94-0.06,1.38-0.15c-1.24,0.59-2.61,0.94-4.08,0.94
			c-5.21,0-9.43-4.22-9.43-9.43s4.22-9.43,9.43-9.43c5.21,0,9.43,4.22,9.43,9.43C789.54,534.72,789.39,535.64,789.13,536.5z"/>
		<g id="LUZES_1_">
			<path class="st3" d="M748,523.52c1.34,0,3.35-0.42,5.36-2.43l1.98-2.01c-0.28-0.51-0.57-1.03-0.86-1.58l-3.55,3.59
				c-1.47,1.47-2.94,2.08-4.15,2.31C747.23,523.48,747.64,523.52,748,523.52z"/>
			<path class="st3" d="M728.59,523.83c1.88,0,3.69-0.82,5.1-2.3l3.63-3.61l-1.19-1.24l-4.87,4.84c-1.11,1.17-2.46,1.91-3.9,2.18
				C727.76,523.79,728.17,523.83,728.59,523.83z"/>
			<path class="st3" d="M751.19,573c0.38,0.06,0.78,0.1,1.18,0.1c1.96,0,3.71-0.69,5.25-1.3c0.06-0.02,0.13-0.05,0.19-0.08
				c-0.24-0.25-0.47-0.47-0.66-0.61c-0.48,0.1-1.36,0.44-1.97,0.68C753.99,572.27,752.65,572.79,751.19,573z"/>
			<path class="st3" d="M734.5,570.22c2.32,0,4.34-1.02,6.12-1.92c0.22-0.11,0.49-0.25,0.77-0.38c-0.29-0.28-0.57-0.53-0.78-0.68
				c-0.57,0.13-1.71,0.7-2.42,1.06c-1.46,0.74-3.08,1.54-4.89,1.82c0.07,0.01,0.12,0.03,0.19,0.04
				C733.83,570.2,734.16,570.22,734.5,570.22z"/>
			<path class="st3" d="M728.29,563.21c-0.68-1.76-1.53-3.95-3.74-5.15c-0.06-0.03-0.12-0.06-0.18-0.09
				c-0.21-0.11-0.43-0.2-0.66-0.28c1.64,1.25,2.23,3.16,2.82,4.7c0.21,0.54,2.42,3.35,2.82,3.43
				C729.21,565.46,728.41,563.51,728.29,563.21z"/>
			<path class="st3" d="M709.1,524.23c1.66,0,3.25-0.61,4.47-1.73l4.04-3.68l-1.28-1.05l-5.19,4.73c-0.92,0.84-2.05,1.39-3.25,1.62
				C708.29,524.19,708.69,524.23,709.1,524.23z"/>
			<path class="st3" d="M825.92,570.88c0.77-0.38,1.47-0.88,1.96-1.54c-0.29-0.04-0.57-0.09-0.85-0.14
				C826.66,569.81,826.29,570.37,825.92,570.88z"/>
			<path class="st3" d="M820.79,563.95l-6.41-0.72c-0.11-0.01-0.22-0.02-0.33-0.02c-0.21,0-0.41,0.03-0.61,0.07l5.93,0.66
				c0.78,0.09,1.46,0.5,1.92,1.09c0.25-0.23,0.54-0.41,0.86-0.54C821.77,564.2,821.3,564.01,820.79,563.95z"/>
			<path class="st3" d="M771.62,586.14c-19.01-0.04-76.86-0.15-93.67-19.4c-3.56-4.08-4.93-8.73-4.19-14.22
				c1.68-12.52,11.15-20.13,18.13-24.77c1.63-1.08,3.2-2.06,4.71-3.01l1-0.62l3.37-2.65l-1.18-0.98l-4.63,3.63l-1,0.62
				c-1.51,0.94-3.08,1.92-4.71,3.01c-6.98,4.63-16.45,12.24-18.13,24.77c-0.74,5.49,0.63,10.14,4.19,14.22
				c16.81,19.25,74.66,19.36,93.67,19.4c1.75,0,3.23,0.01,4.4,0.02l0.02,0c0.04,0,0.07-0.01,0.11-0.02
				C773.07,586.15,772.38,586.14,771.62,586.14z"/>
			<path class="st3" d="M830.42,565.46c-0.48-0.15-0.98-0.23-1.49-0.23c-0.41,0-0.81,0.07-1.2,0.17c0.09,0.02,0.18,0.03,0.26,0.06
				c0.76,0.24,2.72,0.8,4.73,0.81c0.02-0.08,0.03-0.16,0.04-0.24C831.73,565.85,830.86,565.61,830.42,565.46z"/>
			<path class="st3" d="M798.68,563.81c0.14,0.55,0.29,1.1,0.47,1.65c0.14-0.45,0.28-0.95,0.44-1.51c0.03-0.12,0.08-0.23,0.12-0.34
				L798.68,563.81z"/>
			<path class="st3" d="M809.02,568.06c-0.84,2.09-1.72,3.8-2.65,5.13h2.43c0.9-1.27,1.74-2.9,2.55-4.88L809.02,568.06z"/>
		</g>
	</g>
</g>
</svg>
